<svg width="99" height="25" viewBox="0 0 99 25" fill="none" xmlns="http://www.w3.org/2000/svg">
<path d="M0.694512 0.890672H4.09451V24.6907H0.694512V0.890672ZM26.3839 18.7407H13.7359L11.1179 24.6907H7.6159L18.3939 0.890672H21.7599L32.5719 24.6907H29.0019L26.3839 18.7407ZM25.1939 16.0207L20.0599 4.35867L14.9259 16.0207H25.1939ZM53.3942 21.7327V24.6907H36.1222V0.890672H52.9182V3.84867H39.5222V11.1587H51.4562V14.0487H39.5222V21.7327H53.3942ZM76.1716 21.7327V24.6907H58.8996V0.890672H75.6956V3.84867H62.2996V11.1587H74.2336V14.0487H62.2996V21.7327H76.1716ZM98.9489 21.7327V24.6907H81.6769V0.890672H98.4729V3.84867H85.0769V11.1587H97.0109V14.0487H85.0769V21.7327H98.9489Z" fill="#303B9B"/>
</svg>
