<svg width="289" height="25" viewBox="0 0 289 25" fill="none" xmlns="http://www.w3.org/2000/svg">
<path d="M8.54737 0.757065V7.11707H7.50337V2.47307L5.12737 6.39707H4.62337L2.27137 2.46107V7.11707H1.21537V0.757065H2.40337L4.89937 5.05307L7.46737 0.757065H8.54737ZM16.5376 3.97307C16.5376 4.06107 16.5296 4.17707 16.5136 4.32107H11.3536C11.4256 4.88107 11.6696 5.33307 12.0856 5.67707C12.5096 6.01307 13.0336 6.18107 13.6576 6.18107C14.4176 6.18107 15.0296 5.92507 15.4936 5.41307L16.1296 6.15707C15.8416 6.49307 15.4816 6.74907 15.0496 6.92507C14.6256 7.10107 14.1496 7.18907 13.6216 7.18907C12.9496 7.18907 12.3536 7.05307 11.8336 6.78107C11.3136 6.50107 10.9096 6.11307 10.6216 5.61707C10.3416 5.12107 10.2016 4.56107 10.2016 3.93707C10.2016 3.32107 10.3376 2.76507 10.6096 2.26907C10.8896 1.77307 11.2696 1.38907 11.7496 1.11707C12.2376 0.837065 12.7856 0.697065 13.3936 0.697065C14.0016 0.697065 14.5416 0.837065 15.0136 1.11707C15.4936 1.38907 15.8656 1.77307 16.1296 2.26907C16.4016 2.76507 16.5376 3.33307 16.5376 3.97307ZM13.3936 1.66907C12.8416 1.66907 12.3776 1.83707 12.0016 2.17307C11.6336 2.50907 11.4176 2.94907 11.3536 3.49307H15.4336C15.3696 2.95707 15.1496 2.52107 14.7736 2.18507C14.4056 1.84107 13.9456 1.66907 13.3936 1.66907ZM23.933 4.42907H22.697V7.11707H21.545V4.42907H20.309L18.557 7.11707H17.189L19.373 3.82907L17.357 0.757065H18.581L20.297 3.44507H21.545V0.757065H22.697V3.44507H23.945L25.661 0.757065H26.897L24.881 3.84107L27.065 7.11707H25.697L23.933 4.42907ZM34.8006 6.10907V8.59307H33.7206V7.11707H28.4046V8.59307H27.3126V6.10907H27.6486C28.0566 6.08507 28.3366 5.79707 28.4886 5.24507C28.6406 4.69307 28.7446 3.91307 28.8006 2.90507L28.8966 0.757065H33.8286V6.10907H34.8006ZM29.8566 2.98907C29.8246 3.78907 29.7566 4.45307 29.6526 4.98107C29.5566 5.50107 29.3766 5.87707 29.1126 6.10907H32.6766V1.76507H29.9166L29.8566 2.98907ZM41.9773 0.757065L38.8933 7.75307C38.6213 8.40107 38.3013 8.85707 37.9333 9.12107C37.5733 9.38507 37.1373 9.51707 36.6253 9.51707C36.3133 9.51707 36.0093 9.46507 35.7133 9.36107C35.4253 9.26507 35.1853 9.12107 34.9933 8.92907L35.4853 8.06507C35.8133 8.37707 36.1933 8.53307 36.6253 8.53307C36.9053 8.53307 37.1373 8.45707 37.3213 8.30507C37.5133 8.16107 37.6853 7.90907 37.8373 7.54907L38.0413 7.10507L35.2333 0.757065H36.4333L38.6533 5.84507L40.8493 0.757065H41.9773ZM43.1568 0.757065H44.3088V3.45707H47.9328V0.757065H49.0848V7.11707H47.9328V4.45307H44.3088V7.11707H43.1568V0.757065ZM53.5927 0.697065C54.4727 0.697065 55.1447 0.913065 55.6087 1.34506C56.0807 1.77707 56.3167 2.42107 56.3167 3.27707V7.11707H55.2247V6.27707C55.0327 6.57307 54.7567 6.80107 54.3967 6.96107C54.0447 7.11307 53.6247 7.18907 53.1367 7.18907C52.4247 7.18907 51.8527 7.01707 51.4207 6.67307C50.9967 6.32907 50.7847 5.87707 50.7847 5.31707C50.7847 4.75707 50.9887 4.30907 51.3967 3.97307C51.8047 3.62907 52.4527 3.45707 53.3407 3.45707H55.1647V3.22907C55.1647 2.73307 55.0207 2.35307 54.7327 2.08907C54.4447 1.82507 54.0207 1.69307 53.4607 1.69307C53.0847 1.69307 52.7167 1.75707 52.3567 1.88507C51.9967 2.00507 51.6927 2.16907 51.4447 2.37707L50.9647 1.51307C51.2927 1.24907 51.6847 1.04907 52.1407 0.913065C52.5967 0.769065 53.0807 0.697065 53.5927 0.697065ZM53.3287 6.30107C53.7687 6.30107 54.1487 6.20507 54.4687 6.01307C54.7887 5.81307 55.0207 5.53307 55.1647 5.17307V4.28507H53.3887C52.4127 4.28507 51.9247 4.61307 51.9247 5.26907C51.9247 5.58907 52.0487 5.84107 52.2967 6.02507C52.5447 6.20907 52.8887 6.30107 53.3287 6.30107ZM61.7631 0.697065C62.3791 0.697065 62.9311 0.833065 63.4191 1.10506C63.9071 1.37707 64.2871 1.75707 64.5591 2.24507C64.8391 2.73307 64.9791 3.29707 64.9791 3.93707C64.9791 4.57707 64.8391 5.14507 64.5591 5.64107C64.2871 6.12907 63.9071 6.50907 63.4191 6.78107C62.9311 7.05307 62.3791 7.18907 61.7631 7.18907C61.3071 7.18907 60.8871 7.10107 60.5031 6.92507C60.1271 6.74907 59.8071 6.49307 59.5431 6.15707V9.44507H58.3911V0.757065H59.4951V1.76507C59.7511 1.41307 60.0751 1.14907 60.4671 0.973065C60.8591 0.789065 61.2911 0.697065 61.7631 0.697065ZM61.6671 6.18107C62.0751 6.18107 62.4391 6.08907 62.7591 5.90507C63.0871 5.71307 63.3431 5.44907 63.5271 5.11307C63.7191 4.76907 63.8151 4.37707 63.8151 3.93707C63.8151 3.49707 63.7191 3.10907 63.5271 2.77307C63.3431 2.42907 63.0871 2.16507 62.7591 1.98107C62.4391 1.79707 62.0751 1.70507 61.6671 1.70507C61.2671 1.70507 60.9031 1.80107 60.5751 1.99307C60.2551 2.17707 59.9991 2.43707 59.8071 2.77307C59.6231 3.10907 59.5311 3.49707 59.5311 3.93707C59.5311 4.37707 59.6231 4.76907 59.8071 5.11307C59.9911 5.44907 60.2471 5.71307 60.5751 5.90507C60.9031 6.08907 61.2671 6.18107 61.6671 6.18107ZM69.3769 7.18907C68.7449 7.18907 68.1769 7.04907 67.6729 6.76907C67.1689 6.48907 66.7729 6.10507 66.4849 5.61707C66.2049 5.12107 66.0649 4.56107 66.0649 3.93707C66.0649 3.31307 66.2049 2.75707 66.4849 2.26907C66.7729 1.77307 67.1689 1.38907 67.6729 1.11707C68.1769 0.837065 68.7449 0.697065 69.3769 0.697065C70.0089 0.697065 70.5729 0.837065 71.0689 1.11707C71.5729 1.38907 71.9649 1.77307 72.2449 2.26907C72.5329 2.75707 72.6769 3.31307 72.6769 3.93707C72.6769 4.56107 72.5329 5.12107 72.2449 5.61707C71.9649 6.10507 71.5729 6.48907 71.0689 6.76907C70.5729 7.04907 70.0089 7.18907 69.3769 7.18907ZM69.3769 6.18107C69.7849 6.18107 70.1489 6.08907 70.4689 5.90507C70.7969 5.71307 71.0529 5.44907 71.2369 5.11307C71.4209 4.76907 71.5129 4.37707 71.5129 3.93707C71.5129 3.49707 71.4209 3.10907 71.2369 2.77307C71.0529 2.42907 70.7969 2.16507 70.4689 1.98107C70.1489 1.79707 69.7849 1.70507 69.3769 1.70507C68.9689 1.70507 68.6009 1.79707 68.2729 1.98107C67.9529 2.16507 67.6969 2.42907 67.5049 2.77307C67.3209 3.10907 67.2289 3.49707 67.2289 3.93707C67.2289 4.37707 67.3209 4.76907 67.5049 5.11307C67.6969 5.44907 67.9529 5.71307 68.2729 5.90507C68.6009 6.08907 68.9689 6.18107 69.3769 6.18107ZM80.7615 6.10907V8.59307H79.6815V7.11707H74.3655V8.59307H73.2735V6.10907H73.6095C74.0175 6.08507 74.2975 5.79707 74.4495 5.24507C74.6015 4.69307 74.7055 3.91307 74.7615 2.90507L74.8575 0.757065H79.7895V6.10907H80.7615ZM75.8175 2.98907C75.7855 3.78907 75.7175 4.45307 75.6135 4.98107C75.5175 5.50107 75.3375 5.87707 75.0735 6.10907H78.6375V1.76507H75.8775L75.8175 2.98907ZM82.2622 0.757065H83.4142V3.45707H87.0382V0.757065H88.1902V7.11707H87.0382V4.45307H83.4142V7.11707H82.2622V0.757065ZM92.6982 0.697065C93.5782 0.697065 94.2502 0.913065 94.7142 1.34506C95.1862 1.77707 95.4222 2.42107 95.4222 3.27707V7.11707H94.3302V6.27707C94.1382 6.57307 93.8622 6.80107 93.5022 6.96107C93.1502 7.11307 92.7302 7.18907 92.2422 7.18907C91.5302 7.18907 90.9582 7.01707 90.5262 6.67307C90.1022 6.32907 89.8902 5.87707 89.8902 5.31707C89.8902 4.75707 90.0942 4.30907 90.5022 3.97307C90.9102 3.62907 91.5582 3.45707 92.4462 3.45707H94.2702V3.22907C94.2702 2.73307 94.1262 2.35307 93.8382 2.08907C93.5502 1.82507 93.1262 1.69307 92.5662 1.69307C92.1902 1.69307 91.8222 1.75707 91.4622 1.88507C91.1022 2.00507 90.7982 2.16907 90.5502 2.37707L90.0702 1.51307C90.3982 1.24907 90.7902 1.04907 91.2462 0.913065C91.7022 0.769065 92.1862 0.697065 92.6982 0.697065ZM92.4342 6.30107C92.8742 6.30107 93.2542 6.20507 93.5742 6.01307C93.8942 5.81307 94.1262 5.53307 94.2702 5.17307V4.28507H92.4942C91.5182 4.28507 91.0302 4.61307 91.0302 5.26907C91.0302 5.58907 91.1542 5.84107 91.4022 6.02507C91.6502 6.20907 91.9942 6.30107 92.4342 6.30107ZM102.597 0.757065V7.11707H101.565V5.10107H99.7166H99.5846L98.1926 7.11707H96.9566L98.5046 4.94507C98.0246 4.80107 97.6566 4.56507 97.4006 4.23707C97.1446 3.90107 97.0166 3.48507 97.0166 2.98907C97.0166 2.26107 97.2646 1.70907 97.7606 1.33307C98.2566 0.949065 98.9406 0.757065 99.8126 0.757065H102.597ZM98.1926 3.02507C98.1926 3.44907 98.3246 3.76507 98.5886 3.97307C98.8606 4.17307 99.2646 4.27307 99.8006 4.27307H101.565V1.76507H99.8486C98.7446 1.76507 98.1926 2.18507 98.1926 3.02507ZM110.335 0.697065C111.215 0.697065 111.887 0.913065 112.351 1.34506C112.823 1.77707 113.059 2.42107 113.059 3.27707V7.11707H111.967V6.27707C111.775 6.57307 111.499 6.80107 111.139 6.96107C110.787 7.11307 110.367 7.18907 109.879 7.18907C109.167 7.18907 108.595 7.01707 108.163 6.67307C107.739 6.32907 107.527 5.87707 107.527 5.31707C107.527 4.75707 107.731 4.30907 108.139 3.97307C108.547 3.62907 109.195 3.45707 110.083 3.45707H111.907V3.22907C111.907 2.73307 111.763 2.35307 111.475 2.08907C111.187 1.82507 110.763 1.69307 110.203 1.69307C109.827 1.69307 109.459 1.75707 109.099 1.88507C108.739 2.00507 108.435 2.16907 108.187 2.37707L107.707 1.51307C108.035 1.24907 108.427 1.04907 108.883 0.913065C109.339 0.769065 109.823 0.697065 110.335 0.697065ZM110.071 6.30107C110.511 6.30107 110.891 6.20507 111.211 6.01307C111.531 5.81307 111.763 5.53307 111.907 5.17307V4.28507H110.131C109.155 4.28507 108.667 4.61307 108.667 5.26907C108.667 5.58907 108.791 5.84107 109.039 6.02507C109.287 6.20907 109.631 6.30107 110.071 6.30107ZM117.905 7.18907C117.257 7.18907 116.677 7.04907 116.165 6.76907C115.661 6.48907 115.265 6.10507 114.977 5.61707C114.689 5.12107 114.545 4.56107 114.545 3.93707C114.545 3.31307 114.689 2.75707 114.977 2.26907C115.265 1.77307 115.661 1.38907 116.165 1.11707C116.677 0.837065 117.257 0.697065 117.905 0.697065C118.481 0.697065 118.993 0.813065 119.441 1.04506C119.897 1.27707 120.249 1.61307 120.497 2.05307L119.621 2.61707C119.421 2.31307 119.173 2.08507 118.877 1.93307C118.581 1.78107 118.253 1.70507 117.893 1.70507C117.477 1.70507 117.101 1.79707 116.765 1.98107C116.437 2.16507 116.177 2.42907 115.985 2.77307C115.801 3.10907 115.709 3.49707 115.709 3.93707C115.709 4.38507 115.801 4.78107 115.985 5.12507C116.177 5.46107 116.437 5.72107 116.765 5.90507C117.101 6.08907 117.477 6.18107 117.893 6.18107C118.253 6.18107 118.581 6.10507 118.877 5.95307C119.173 5.80107 119.421 5.57307 119.621 5.26907L120.497 5.82107C120.249 6.26107 119.897 6.60107 119.441 6.84107C118.993 7.07307 118.481 7.18907 117.905 7.18907ZM124.667 7.18907C124.019 7.18907 123.439 7.04907 122.927 6.76907C122.423 6.48907 122.027 6.10507 121.739 5.61707C121.451 5.12107 121.307 4.56107 121.307 3.93707C121.307 3.31307 121.451 2.75707 121.739 2.26907C122.027 1.77307 122.423 1.38907 122.927 1.11707C123.439 0.837065 124.019 0.697065 124.667 0.697065C125.243 0.697065 125.755 0.813065 126.203 1.04506C126.659 1.27707 127.011 1.61307 127.259 2.05307L126.383 2.61707C126.183 2.31307 125.935 2.08507 125.639 1.93307C125.343 1.78107 125.015 1.70507 124.655 1.70507C124.239 1.70507 123.863 1.79707 123.527 1.98107C123.199 2.16507 122.939 2.42907 122.747 2.77307C122.563 3.10907 122.471 3.49707 122.471 3.93707C122.471 4.38507 122.563 4.78107 122.747 5.12507C122.939 5.46107 123.199 5.72107 123.527 5.90507C123.863 6.08907 124.239 6.18107 124.655 6.18107C125.015 6.18107 125.343 6.10507 125.639 5.95307C125.935 5.80107 126.183 5.57307 126.383 5.26907L127.259 5.82107C127.011 6.26107 126.659 6.60107 126.203 6.84107C125.755 7.07307 125.243 7.18907 124.667 7.18907ZM131.381 7.18907C130.749 7.18907 130.181 7.04907 129.677 6.76907C129.173 6.48907 128.777 6.10507 128.489 5.61707C128.209 5.12107 128.069 4.56107 128.069 3.93707C128.069 3.31307 128.209 2.75707 128.489 2.26907C128.777 1.77307 129.173 1.38907 129.677 1.11707C130.181 0.837065 130.749 0.697065 131.381 0.697065C132.013 0.697065 132.577 0.837065 133.073 1.11707C133.577 1.38907 133.969 1.77307 134.249 2.26907C134.537 2.75707 134.681 3.31307 134.681 3.93707C134.681 4.56107 134.537 5.12107 134.249 5.61707C133.969 6.10507 133.577 6.48907 133.073 6.76907C132.577 7.04907 132.013 7.18907 131.381 7.18907ZM131.381 6.18107C131.789 6.18107 132.153 6.08907 132.473 5.90507C132.801 5.71307 133.057 5.44907 133.241 5.11307C133.425 4.76907 133.517 4.37707 133.517 3.93707C133.517 3.49707 133.425 3.10907 133.241 2.77307C133.057 2.42907 132.801 2.16507 132.473 1.98107C132.153 1.79707 131.789 1.70507 131.381 1.70507C130.973 1.70507 130.605 1.79707 130.277 1.98107C129.957 2.16507 129.701 2.42907 129.509 2.77307C129.325 3.10907 129.233 3.49707 129.233 3.93707C129.233 4.37707 129.325 4.76907 129.509 5.11307C129.701 5.44907 129.957 5.71307 130.277 5.90507C130.605 6.08907 130.973 6.18107 131.381 6.18107ZM143.136 6.10907V8.64107H142.044V7.11707H136.344V0.757065H137.496V6.10907H140.976V0.757065H142.128V6.10907H143.136ZM144.629 0.757065H145.781V5.38907L149.681 0.757065H150.725V7.11707H149.573V2.48507L145.685 7.11707H144.629V0.757065ZM155.229 0.697065C156.109 0.697065 156.781 0.913065 157.245 1.34506C157.717 1.77707 157.953 2.42107 157.953 3.27707V7.11707H156.861V6.27707C156.669 6.57307 156.393 6.80107 156.033 6.96107C155.681 7.11307 155.261 7.18907 154.773 7.18907C154.061 7.18907 153.489 7.01707 153.057 6.67307C152.633 6.32907 152.421 5.87707 152.421 5.31707C152.421 4.75707 152.625 4.30907 153.033 3.97307C153.441 3.62907 154.089 3.45707 154.977 3.45707H156.801V3.22907C156.801 2.73307 156.657 2.35307 156.369 2.08907C156.081 1.82507 155.657 1.69307 155.097 1.69307C154.721 1.69307 154.353 1.75707 153.993 1.88507C153.633 2.00507 153.329 2.16907 153.081 2.37707L152.601 1.51307C152.929 1.24907 153.321 1.04907 153.777 0.913065C154.233 0.769065 154.717 0.697065 155.229 0.697065ZM154.965 6.30107C155.405 6.30107 155.785 6.20507 156.105 6.01307C156.425 5.81307 156.657 5.53307 156.801 5.17307V4.28507H155.025C154.049 4.28507 153.561 4.61307 153.561 5.26907C153.561 5.58907 153.685 5.84107 153.933 6.02507C154.181 6.20907 154.525 6.30107 154.965 6.30107ZM166.82 6.10907V8.64107H165.728V7.11707H160.028V0.757065H161.18V6.10907H164.66V0.757065H165.812V6.10907H166.82ZM168.313 0.757065H169.465V5.38907L173.365 0.757065H174.409V7.11707H173.257V2.48507L169.369 7.11707H168.313V0.757065ZM181.745 0.757065V7.11707H180.713V5.10107H178.865H178.733L177.341 7.11707H176.105L177.653 4.94507C177.173 4.80107 176.805 4.56507 176.549 4.23707C176.293 3.90107 176.165 3.48507 176.165 2.98907C176.165 2.26107 176.413 1.70907 176.909 1.33307C177.405 0.949065 178.089 0.757065 178.961 0.757065H181.745ZM177.341 3.02507C177.341 3.44907 177.473 3.76507 177.737 3.97307C178.009 4.17307 178.413 4.27307 178.949 4.27307H180.713V1.76507H178.997C177.893 1.76507 177.341 2.18507 177.341 3.02507ZM3.05137 15.6851C3.69937 15.6851 4.28337 15.8251 4.80337 16.1051C5.33137 16.3851 5.74337 16.7731 6.03937 17.2691C6.33537 17.7651 6.48337 18.3211 6.48337 18.9371C6.48337 19.5611 6.33537 20.1211 6.03937 20.6171C5.74337 21.1131 5.33137 21.5011 4.80337 21.7811C4.28337 22.0611 3.69937 22.2011 3.05137 22.2011C2.49137 22.2011 1.98337 22.1131 1.52737 21.9371C1.07937 21.7611 0.699365 21.5051 0.387365 21.1691L1.05937 20.4971C1.57137 21.0011 2.21937 21.2531 3.00337 21.2531C3.62737 21.2531 4.15937 21.0771 4.59937 20.7251C5.03937 20.3651 5.30337 19.8971 5.39137 19.3211H2.19937V18.4691H5.36737C5.26337 17.9171 4.99537 17.4731 4.56337 17.1371C4.13137 16.7931 3.61137 16.6211 3.00337 16.6211C2.22737 16.6211 1.57937 16.8771 1.05937 17.3891L0.387365 16.7291C0.699365 16.3851 1.08337 16.1251 1.53937 15.9491C1.99537 15.7731 2.49937 15.6851 3.05137 15.6851ZM10.5897 19.4291H9.26971V22.1171H8.11771V15.7571H9.26971V18.4451H10.6137L12.6777 15.7571H13.9137L11.5017 18.8171L14.0817 22.1171H12.7257L10.5897 19.4291ZM17.8506 22.1891C17.2026 22.1891 16.6226 22.0491 16.1106 21.7691C15.6066 21.4891 15.2106 21.1051 14.9226 20.6171C14.6346 20.1211 14.4906 19.5611 14.4906 18.9371C14.4906 18.3131 14.6346 17.7571 14.9226 17.2691C15.2106 16.7731 15.6066 16.3891 16.1106 16.1171C16.6226 15.8371 17.2026 15.6971 17.8506 15.6971C18.4266 15.6971 18.9386 15.8131 19.3866 16.0451C19.8426 16.2771 20.1946 16.6131 20.4426 17.0531L19.5666 17.6171C19.3666 17.3131 19.1186 17.0851 18.8226 16.9331C18.5266 16.7811 18.1986 16.7051 17.8386 16.7051C17.4226 16.7051 17.0466 16.7971 16.7106 16.9811C16.3826 17.1651 16.1226 17.4291 15.9306 17.7731C15.7466 18.1091 15.6546 18.4971 15.6546 18.9371C15.6546 19.3851 15.7466 19.7811 15.9306 20.1251C16.1226 20.4611 16.3826 20.7211 16.7106 20.9051C17.0466 21.0891 17.4226 21.1811 17.8386 21.1811C18.1986 21.1811 18.5266 21.1051 18.8226 20.9531C19.1186 20.8011 19.3666 20.5731 19.5666 20.2691L20.4426 20.8211C20.1946 21.2611 19.8426 21.6011 19.3866 21.8411C18.9386 22.0731 18.4266 22.1891 17.8506 22.1891ZM27.8261 15.7571V22.1171H26.6741V16.7651H23.0861V22.1171H21.9341V15.7571H27.8261ZM35.8032 18.9731C35.8032 19.0611 35.7952 19.1771 35.7792 19.3211H30.6192C30.6912 19.8811 30.9352 20.3331 31.3512 20.6771C31.7752 21.0131 32.2992 21.1811 32.9232 21.1811C33.6832 21.1811 34.2952 20.9251 34.7592 20.4131L35.3952 21.1571C35.1072 21.4931 34.7472 21.7491 34.3152 21.9251C33.8912 22.1011 33.4152 22.1891 32.8872 22.1891C32.2152 22.1891 31.6192 22.0531 31.0992 21.7811C30.5792 21.5011 30.1752 21.1131 29.8872 20.6171C29.6072 20.1211 29.4672 19.5611 29.4672 18.9371C29.4672 18.3211 29.6032 17.7651 29.8752 17.2691C30.1552 16.7731 30.5352 16.3891 31.0152 16.1171C31.5032 15.8371 32.0512 15.6971 32.6592 15.6971C33.2672 15.6971 33.8072 15.8371 34.2792 16.1171C34.7592 16.3891 35.1312 16.7731 35.3952 17.2691C35.6672 17.7651 35.8032 18.3331 35.8032 18.9731ZM32.6592 16.6691C32.1072 16.6691 31.6432 16.8371 31.2672 17.1731C30.8992 17.5091 30.6832 17.9491 30.6192 18.4931H34.6992C34.6352 17.9571 34.4152 17.5211 34.0392 17.1851C33.6712 16.8411 33.2112 16.6691 32.6592 16.6691ZM40.9624 15.6971C41.5784 15.6971 42.1304 15.8331 42.6184 16.1051C43.1064 16.3771 43.4864 16.7571 43.7584 17.2451C44.0384 17.7331 44.1784 18.2971 44.1784 18.9371C44.1784 19.5771 44.0384 20.1451 43.7584 20.6411C43.4864 21.1291 43.1064 21.5091 42.6184 21.7811C42.1304 22.0531 41.5784 22.1891 40.9624 22.1891C40.5064 22.1891 40.0864 22.1011 39.7024 21.9251C39.3264 21.7491 39.0064 21.4931 38.7424 21.1571V24.4451H37.5904V15.7571H38.6944V16.7651C38.9504 16.4131 39.2744 16.1491 39.6664 15.9731C40.0584 15.7891 40.4904 15.6971 40.9624 15.6971ZM40.8664 21.1811C41.2744 21.1811 41.6384 21.0891 41.9584 20.9051C42.2864 20.7131 42.5424 20.4491 42.7264 20.1131C42.9184 19.7691 43.0144 19.3771 43.0144 18.9371C43.0144 18.4971 42.9184 18.1091 42.7264 17.7731C42.5424 17.4291 42.2864 17.1651 41.9584 16.9811C41.6384 16.7971 41.2744 16.7051 40.8664 16.7051C40.4664 16.7051 40.1024 16.8011 39.7744 16.9931C39.4544 17.1771 39.1984 17.4371 39.0064 17.7731C38.8224 18.1091 38.7304 18.4971 38.7304 18.9371C38.7304 19.3771 38.8224 19.7691 39.0064 20.1131C39.1904 20.4491 39.4464 20.7131 39.7744 20.9051C40.1024 21.0891 40.4664 21.1811 40.8664 21.1811ZM50.3577 16.7651H48.0297V22.1171H46.8777V16.7651H44.5497V15.7571H50.3577V16.7651ZM53.9784 22.1891C53.3464 22.1891 52.7784 22.0491 52.2744 21.7691C51.7704 21.4891 51.3744 21.1051 51.0864 20.6171C50.8064 20.1211 50.6664 19.5611 50.6664 18.9371C50.6664 18.3131 50.8064 17.7571 51.0864 17.2691C51.3744 16.7731 51.7704 16.3891 52.2744 16.1171C52.7784 15.8371 53.3464 15.6971 53.9784 15.6971C54.6104 15.6971 55.1744 15.8371 55.6704 16.1171C56.1744 16.3891 56.5664 16.7731 56.8464 17.2691C57.1344 17.7571 57.2784 18.3131 57.2784 18.9371C57.2784 19.5611 57.1344 20.1211 56.8464 20.6171C56.5664 21.1051 56.1744 21.4891 55.6704 21.7691C55.1744 22.0491 54.6104 22.1891 53.9784 22.1891ZM53.9784 21.1811C54.3864 21.1811 54.7504 21.0891 55.0704 20.9051C55.3984 20.7131 55.6544 20.4491 55.8384 20.1131C56.0224 19.7691 56.1144 19.3771 56.1144 18.9371C56.1144 18.4971 56.0224 18.1091 55.8384 17.7731C55.6544 17.4291 55.3984 17.1651 55.0704 16.9811C54.7504 16.7971 54.3864 16.7051 53.9784 16.7051C53.5704 16.7051 53.2024 16.7971 52.8744 16.9811C52.5544 17.1651 52.2984 17.4291 52.1064 17.7731C51.9224 18.1091 51.8304 18.4971 51.8304 18.9371C51.8304 19.3771 51.9224 19.7691 52.1064 20.1131C52.2984 20.4491 52.5544 20.7131 52.8744 20.9051C53.2024 21.0891 53.5704 21.1811 53.9784 21.1811ZM63.2739 18.8171C64.0979 19.0251 64.5099 19.5411 64.5099 20.3651C64.5099 20.9251 64.2979 21.3571 63.8739 21.6611C63.4579 21.9651 62.8339 22.1171 62.0019 22.1171H58.9419V15.7571H61.8939C62.6459 15.7571 63.2339 15.9011 63.6579 16.1891C64.0819 16.4691 64.2939 16.8691 64.2939 17.3891C64.2939 17.7251 64.2019 18.0171 64.0179 18.2651C63.8419 18.5051 63.5939 18.6891 63.2739 18.8171ZM60.0699 18.4931H61.7979C62.2379 18.4931 62.5699 18.4131 62.7939 18.2531C63.0259 18.0931 63.1419 17.8611 63.1419 17.5571C63.1419 16.9491 62.6939 16.6451 61.7979 16.6451H60.0699V18.4931ZM61.9179 21.2291C62.3979 21.2291 62.7579 21.1531 62.9979 21.0011C63.2379 20.8491 63.3579 20.6131 63.3579 20.2931C63.3579 19.9651 63.2459 19.7211 63.0219 19.5611C62.8059 19.4011 62.4619 19.3211 61.9899 19.3211H60.0699V21.2291H61.9179ZM75.4277 15.7571V22.1171H74.2757V16.7651H70.6877V22.1171H69.5357V15.7571H75.4277ZM80.3808 22.1891C79.7488 22.1891 79.1808 22.0491 78.6768 21.7691C78.1728 21.4891 77.7768 21.1051 77.4888 20.6171C77.2088 20.1211 77.0688 19.5611 77.0688 18.9371C77.0688 18.3131 77.2088 17.7571 77.4888 17.2691C77.7768 16.7731 78.1728 16.3891 78.6768 16.1171C79.1808 15.8371 79.7488 15.6971 80.3808 15.6971C81.0128 15.6971 81.5768 15.8371 82.0728 16.1171C82.5768 16.3891 82.9688 16.7731 83.2488 17.2691C83.5368 17.7571 83.6808 18.3131 83.6808 18.9371C83.6808 19.5611 83.5368 20.1211 83.2488 20.6171C82.9688 21.1051 82.5768 21.4891 82.0728 21.7691C81.5768 22.0491 81.0128 22.1891 80.3808 22.1891ZM80.3808 21.1811C80.7888 21.1811 81.1528 21.0891 81.4728 20.9051C81.8008 20.7131 82.0568 20.4491 82.2408 20.1131C82.4248 19.7691 82.5168 19.3771 82.5168 18.9371C82.5168 18.4971 82.4248 18.1091 82.2408 17.7731C82.0568 17.4291 81.8008 17.1651 81.4728 16.9811C81.1528 16.7971 80.7888 16.7051 80.3808 16.7051C79.9728 16.7051 79.6048 16.7971 79.2768 16.9811C78.9568 17.1651 78.7008 17.4291 78.5088 17.7731C78.3248 18.1091 78.2328 18.4971 78.2328 18.9371C78.2328 19.3771 78.3248 19.7691 78.5088 20.1131C78.7008 20.4491 78.9568 20.7131 79.2768 20.9051C79.6048 21.0891 79.9728 21.1811 80.3808 21.1811ZM91.3389 22.1891C90.6909 22.1891 90.1109 22.0491 89.5989 21.7691C89.0949 21.4891 88.6989 21.1051 88.4109 20.6171C88.1229 20.1211 87.9789 19.5611 87.9789 18.9371C87.9789 18.3131 88.1229 17.7571 88.4109 17.2691C88.6989 16.7731 89.0949 16.3891 89.5989 16.1171C90.1109 15.8371 90.6909 15.6971 91.3389 15.6971C91.9149 15.6971 92.4269 15.8131 92.8749 16.0451C93.3309 16.2771 93.6829 16.6131 93.9309 17.0531L93.0549 17.6171C92.8549 17.3131 92.6069 17.0851 92.3109 16.9331C92.0149 16.7811 91.6869 16.7051 91.3269 16.7051C90.9109 16.7051 90.5349 16.7971 90.1989 16.9811C89.8709 17.1651 89.6109 17.4291 89.4189 17.7731C89.2349 18.1091 89.1429 18.4971 89.1429 18.9371C89.1429 19.3851 89.2349 19.7811 89.4189 20.1251C89.6109 20.4611 89.8709 20.7211 90.1989 20.9051C90.5349 21.0891 90.9109 21.1811 91.3269 21.1811C91.6869 21.1811 92.0149 21.1051 92.3109 20.9531C92.6069 20.8011 92.8549 20.5731 93.0549 20.2691L93.9309 20.8211C93.6829 21.2611 93.3309 21.6011 92.8749 21.8411C92.4269 22.0731 91.9149 22.1891 91.3389 22.1891ZM101.077 18.9731C101.077 19.0611 101.069 19.1771 101.053 19.3211H95.8926C95.9646 19.8811 96.2086 20.3331 96.6246 20.6771C97.0486 21.0131 97.5726 21.1811 98.1966 21.1811C98.9566 21.1811 99.5686 20.9251 100.033 20.4131L100.669 21.1571C100.381 21.4931 100.021 21.7491 99.5886 21.9251C99.1646 22.1011 98.6886 22.1891 98.1606 22.1891C97.4886 22.1891 96.8926 22.0531 96.3726 21.7811C95.8526 21.5011 95.4486 21.1131 95.1606 20.6171C94.8806 20.1211 94.7406 19.5611 94.7406 18.9371C94.7406 18.3211 94.8766 17.7651 95.1486 17.2691C95.4286 16.7731 95.8086 16.3891 96.2886 16.1171C96.7766 15.8371 97.3246 15.6971 97.9326 15.6971C98.5406 15.6971 99.0806 15.8371 99.5526 16.1171C100.033 16.3891 100.405 16.7731 100.669 17.2691C100.941 17.7651 101.077 18.3331 101.077 18.9731ZM97.9326 16.6691C97.3806 16.6691 96.9166 16.8371 96.5406 17.1731C96.1726 17.5091 95.9566 17.9491 95.8926 18.4931H99.9726C99.9086 17.9571 99.6886 17.5211 99.3126 17.1851C98.9446 16.8411 98.4846 16.6691 97.9326 16.6691ZM102.864 15.7571H104.016V20.3891L107.916 15.7571H108.96V22.1171H107.808V17.4851L103.92 22.1171H102.864V15.7571ZM105.84 14.9291C105.248 14.9291 104.788 14.7891 104.46 14.5091C104.132 14.2211 103.964 13.8091 103.956 13.2731H104.736C104.744 13.5691 104.844 13.8091 105.036 13.9931C105.236 14.1691 105.5 14.2571 105.828 14.2571C106.156 14.2571 106.42 14.1691 106.62 13.9931C106.82 13.8091 106.924 13.5691 106.932 13.2731H107.736C107.728 13.8091 107.556 14.2211 107.22 14.5091C106.884 14.7891 106.424 14.9291 105.84 14.9291ZM113.968 22.1891C113.32 22.1891 112.74 22.0491 112.228 21.7691C111.724 21.4891 111.328 21.1051 111.04 20.6171C110.752 20.1211 110.608 19.5611 110.608 18.9371C110.608 18.3131 110.752 17.7571 111.04 17.2691C111.328 16.7731 111.724 16.3891 112.228 16.1171C112.74 15.8371 113.32 15.6971 113.968 15.6971C114.544 15.6971 115.056 15.8131 115.504 16.0451C115.96 16.2771 116.312 16.6131 116.56 17.0531L115.684 17.6171C115.484 17.3131 115.236 17.0851 114.94 16.9331C114.644 16.7811 114.316 16.7051 113.956 16.7051C113.54 16.7051 113.164 16.7971 112.828 16.9811C112.5 17.1651 112.24 17.4291 112.048 17.7731C111.864 18.1091 111.772 18.4971 111.772 18.9371C111.772 19.3851 111.864 19.7811 112.048 20.1251C112.24 20.4611 112.5 20.7211 112.828 20.9051C113.164 21.0891 113.54 21.1811 113.956 21.1811C114.316 21.1811 114.644 21.1051 114.94 20.9531C115.236 20.8011 115.484 20.5731 115.684 20.2691L116.56 20.8211C116.312 21.2611 115.96 21.6011 115.504 21.8411C115.056 22.0731 114.544 22.1891 113.968 22.1891ZM125.383 15.7571V22.1171H124.339V17.4731L121.963 21.3971H121.459L119.107 17.4611V22.1171H118.051V15.7571H119.239L121.735 20.0531L124.303 15.7571H125.383ZM130.35 22.1891C129.718 22.1891 129.15 22.0491 128.646 21.7691C128.142 21.4891 127.746 21.1051 127.458 20.6171C127.178 20.1211 127.038 19.5611 127.038 18.9371C127.038 18.3131 127.178 17.7571 127.458 17.2691C127.746 16.7731 128.142 16.3891 128.646 16.1171C129.15 15.8371 129.718 15.6971 130.35 15.6971C130.982 15.6971 131.546 15.8371 132.042 16.1171C132.546 16.3891 132.938 16.7731 133.218 17.2691C133.506 17.7571 133.65 18.3131 133.65 18.9371C133.65 19.5611 133.506 20.1211 133.218 20.6171C132.938 21.1051 132.546 21.4891 132.042 21.7691C131.546 22.0491 130.982 22.1891 130.35 22.1891ZM130.35 21.1811C130.758 21.1811 131.122 21.0891 131.442 20.9051C131.77 20.7131 132.026 20.4491 132.21 20.1131C132.394 19.7691 132.486 19.3771 132.486 18.9371C132.486 18.4971 132.394 18.1091 132.21 17.7731C132.026 17.4291 131.77 17.1651 131.442 16.9811C131.122 16.7971 130.758 16.7051 130.35 16.7051C129.942 16.7051 129.574 16.7971 129.246 16.9811C128.926 17.1651 128.67 17.4291 128.478 17.7731C128.294 18.1091 128.202 18.4971 128.202 18.9371C128.202 19.3771 128.294 19.7691 128.478 20.1131C128.67 20.4491 128.926 20.7131 129.246 20.9051C129.574 21.0891 129.942 21.1811 130.35 21.1811ZM138.085 22.1891C137.437 22.1891 136.857 22.0491 136.345 21.7691C135.841 21.4891 135.445 21.1051 135.157 20.6171C134.869 20.1211 134.725 19.5611 134.725 18.9371C134.725 18.3131 134.869 17.7571 135.157 17.2691C135.445 16.7731 135.841 16.3891 136.345 16.1171C136.857 15.8371 137.437 15.6971 138.085 15.6971C138.661 15.6971 139.173 15.8131 139.621 16.0451C140.077 16.2771 140.429 16.6131 140.677 17.0531L139.801 17.6171C139.601 17.3131 139.353 17.0851 139.057 16.9331C138.761 16.7811 138.433 16.7051 138.073 16.7051C137.657 16.7051 137.281 16.7971 136.945 16.9811C136.617 17.1651 136.357 17.4291 136.165 17.7731C135.981 18.1091 135.889 18.4971 135.889 18.9371C135.889 19.3851 135.981 19.7811 136.165 20.1251C136.357 20.4611 136.617 20.7211 136.945 20.9051C137.281 21.0891 137.657 21.1811 138.073 21.1811C138.433 21.1811 138.761 21.1051 139.057 20.9531C139.353 20.8011 139.601 20.5731 139.801 20.2691L140.677 20.8211C140.429 21.2611 140.077 21.6011 139.621 21.8411C139.173 22.0731 138.661 22.1891 138.085 22.1891ZM146.826 16.7651H144.498V22.1171H143.346V16.7651H141.018V15.7571H146.826V16.7651ZM150.447 22.1891C149.815 22.1891 149.247 22.0491 148.743 21.7691C148.239 21.4891 147.843 21.1051 147.555 20.6171C147.275 20.1211 147.135 19.5611 147.135 18.9371C147.135 18.3131 147.275 17.7571 147.555 17.2691C147.843 16.7731 148.239 16.3891 148.743 16.1171C149.247 15.8371 149.815 15.6971 150.447 15.6971C151.079 15.6971 151.643 15.8371 152.139 16.1171C152.643 16.3891 153.035 16.7731 153.315 17.2691C153.603 17.7571 153.747 18.3131 153.747 18.9371C153.747 19.5611 153.603 20.1211 153.315 20.6171C153.035 21.1051 152.643 21.4891 152.139 21.7691C151.643 22.0491 151.079 22.1891 150.447 22.1891ZM150.447 21.1811C150.855 21.1811 151.219 21.0891 151.539 20.9051C151.867 20.7131 152.123 20.4491 152.307 20.1131C152.491 19.7691 152.583 19.3771 152.583 18.9371C152.583 18.4971 152.491 18.1091 152.307 17.7731C152.123 17.4291 151.867 17.1651 151.539 16.9811C151.219 16.7971 150.855 16.7051 150.447 16.7051C150.039 16.7051 149.671 16.7971 149.343 16.9811C149.023 17.1651 148.767 17.4291 148.575 17.7731C148.391 18.1091 148.299 18.4971 148.299 18.9371C148.299 19.3771 148.391 19.7691 148.575 20.1131C148.767 20.4491 149.023 20.7131 149.343 20.9051C149.671 21.0891 150.039 21.1811 150.447 21.1811ZM155.411 15.7571H156.563V20.3891L160.463 15.7571H161.507V22.1171H160.355V17.4851L156.467 22.1171H155.411V15.7571ZM158.387 14.9291C157.795 14.9291 157.335 14.7891 157.007 14.5091C156.679 14.2211 156.511 13.8091 156.503 13.2731H157.283C157.291 13.5691 157.391 13.8091 157.583 13.9931C157.783 14.1691 158.047 14.2571 158.375 14.2571C158.703 14.2571 158.967 14.1691 159.167 13.9931C159.367 13.8091 159.471 13.5691 159.479 13.2731H160.283C160.275 13.8091 160.103 14.2211 159.767 14.5091C159.431 14.7891 158.971 14.9291 158.387 14.9291ZM166.215 19.4291H164.895V22.1171H163.743V15.7571H164.895V18.4451H166.239L168.303 15.7571H169.539L167.127 18.8171L169.707 22.1171H168.351L166.215 19.4291ZM173.428 22.1891C172.796 22.1891 172.228 22.0491 171.724 21.7691C171.22 21.4891 170.824 21.1051 170.536 20.6171C170.256 20.1211 170.116 19.5611 170.116 18.9371C170.116 18.3131 170.256 17.7571 170.536 17.2691C170.824 16.7731 171.22 16.3891 171.724 16.1171C172.228 15.8371 172.796 15.6971 173.428 15.6971C174.06 15.6971 174.624 15.8371 175.12 16.1171C175.624 16.3891 176.016 16.7731 176.296 17.2691C176.584 17.7571 176.728 18.3131 176.728 18.9371C176.728 19.5611 176.584 20.1211 176.296 20.6171C176.016 21.1051 175.624 21.4891 175.12 21.7691C174.624 22.0491 174.06 22.1891 173.428 22.1891ZM173.428 21.1811C173.836 21.1811 174.2 21.0891 174.52 20.9051C174.848 20.7131 175.104 20.4491 175.288 20.1131C175.472 19.7691 175.564 19.3771 175.564 18.9371C175.564 18.4971 175.472 18.1091 175.288 17.7731C175.104 17.4291 174.848 17.1651 174.52 16.9811C174.2 16.7971 173.836 16.7051 173.428 16.7051C173.02 16.7051 172.652 16.7971 172.324 16.9811C172.004 17.1651 171.748 17.4291 171.556 17.7731C171.372 18.1091 171.28 18.4971 171.28 18.9371C171.28 19.3771 171.372 19.7691 171.556 20.1131C171.748 20.4491 172.004 20.7131 172.324 20.9051C172.652 21.0891 173.02 21.1811 173.428 21.1811ZM185.723 15.7571V22.1171H184.679V17.4731L182.303 21.3971H181.799L179.447 17.4611V22.1171H178.391V15.7571H179.579L182.075 20.0531L184.643 15.7571H185.723ZM193.641 15.7571L190.557 22.7531C190.285 23.4011 189.965 23.8571 189.597 24.1211C189.237 24.3851 188.801 24.5171 188.289 24.5171C187.977 24.5171 187.673 24.4651 187.377 24.3611C187.089 24.2651 186.849 24.1211 186.657 23.9291L187.149 23.0651C187.477 23.3771 187.857 23.5331 188.289 23.5331C188.569 23.5331 188.801 23.4571 188.985 23.3051C189.177 23.1611 189.349 22.9091 189.501 22.5491L189.705 22.1051L186.897 15.7571H188.097L190.317 20.8451L192.513 15.7571H193.641ZM200.815 22.1891C200.167 22.1891 199.587 22.0491 199.075 21.7691C198.571 21.4891 198.175 21.1051 197.887 20.6171C197.599 20.1211 197.455 19.5611 197.455 18.9371C197.455 18.3131 197.599 17.7571 197.887 17.2691C198.175 16.7731 198.571 16.3891 199.075 16.1171C199.587 15.8371 200.167 15.6971 200.815 15.6971C201.391 15.6971 201.903 15.8131 202.351 16.0451C202.807 16.2771 203.159 16.6131 203.407 17.0531L202.531 17.6171C202.331 17.3131 202.083 17.0851 201.787 16.9331C201.491 16.7811 201.163 16.7051 200.803 16.7051C200.387 16.7051 200.011 16.7971 199.675 16.9811C199.347 17.1651 199.087 17.4291 198.895 17.7731C198.711 18.1091 198.619 18.4971 198.619 18.9371C198.619 19.3851 198.711 19.7811 198.895 20.1251C199.087 20.4611 199.347 20.7211 199.675 20.9051C200.011 21.0891 200.387 21.1811 200.803 21.1811C201.163 21.1811 201.491 21.1051 201.787 20.9531C202.083 20.8011 202.331 20.5731 202.531 20.2691L203.407 20.8211C203.159 21.2611 202.807 21.6011 202.351 21.8411C201.903 22.0731 201.391 22.1891 200.815 22.1891ZM209.557 16.7651H207.229V22.1171H206.077V16.7651H203.749V15.7571H209.557V16.7651ZM214.107 15.6971C214.723 15.6971 215.275 15.8331 215.763 16.1051C216.251 16.3771 216.631 16.7571 216.903 17.2451C217.183 17.7331 217.323 18.2971 217.323 18.9371C217.323 19.5771 217.183 20.1451 216.903 20.6411C216.631 21.1291 216.251 21.5091 215.763 21.7811C215.275 22.0531 214.723 22.1891 214.107 22.1891C213.651 22.1891 213.231 22.1011 212.847 21.9251C212.471 21.7491 212.151 21.4931 211.887 21.1571V24.4451H210.735V15.7571H211.839V16.7651C212.095 16.4131 212.419 16.1491 212.811 15.9731C213.203 15.7891 213.635 15.6971 214.107 15.6971ZM214.011 21.1811C214.419 21.1811 214.783 21.0891 215.103 20.9051C215.431 20.7131 215.687 20.4491 215.871 20.1131C216.063 19.7691 216.159 19.3771 216.159 18.9371C216.159 18.4971 216.063 18.1091 215.871 17.7731C215.687 17.4291 215.431 17.1651 215.103 16.9811C214.783 16.7971 214.419 16.7051 214.011 16.7051C213.611 16.7051 213.247 16.8011 212.919 16.9931C212.599 17.1771 212.343 17.4371 212.151 17.7731C211.967 18.1091 211.875 18.4971 211.875 18.9371C211.875 19.3771 211.967 19.7691 212.151 20.1131C212.335 20.4491 212.591 20.7131 212.919 20.9051C213.247 21.0891 213.611 21.1811 214.011 21.1811ZM221.721 22.1891C221.089 22.1891 220.521 22.0491 220.017 21.7691C219.513 21.4891 219.117 21.1051 218.829 20.6171C218.549 20.1211 218.409 19.5611 218.409 18.9371C218.409 18.3131 218.549 17.7571 218.829 17.2691C219.117 16.7731 219.513 16.3891 220.017 16.1171C220.521 15.8371 221.089 15.6971 221.721 15.6971C222.353 15.6971 222.917 15.8371 223.413 16.1171C223.917 16.3891 224.309 16.7731 224.589 17.2691C224.877 17.7571 225.021 18.3131 225.021 18.9371C225.021 19.5611 224.877 20.1211 224.589 20.6171C224.309 21.1051 223.917 21.4891 223.413 21.7691C222.917 22.0491 222.353 22.1891 221.721 22.1891ZM221.721 21.1811C222.129 21.1811 222.493 21.0891 222.813 20.9051C223.141 20.7131 223.397 20.4491 223.581 20.1131C223.765 19.7691 223.857 19.3771 223.857 18.9371C223.857 18.4971 223.765 18.1091 223.581 17.7731C223.397 17.4291 223.141 17.1651 222.813 16.9811C222.493 16.7971 222.129 16.7051 221.721 16.7051C221.313 16.7051 220.945 16.7971 220.617 16.9811C220.297 17.1651 220.041 17.4291 219.849 17.7731C219.665 18.1091 219.573 18.4971 219.573 18.9371C219.573 19.3771 219.665 19.7691 219.849 20.1131C220.041 20.4491 220.297 20.7131 220.617 20.9051C220.945 21.0891 221.313 21.1811 221.721 21.1811ZM226.684 15.7571H227.836V20.3891L231.736 15.7571H232.78V22.1171H231.628V17.4851L227.74 22.1171H226.684V15.7571ZM239.756 16.7651H237.428V22.1171H236.276V16.7651H233.948V15.7571H239.756V16.7651ZM246.401 18.9731C246.401 19.0611 246.393 19.1771 246.377 19.3211H241.217C241.289 19.8811 241.533 20.3331 241.949 20.6771C242.373 21.0131 242.897 21.1811 243.521 21.1811C244.281 21.1811 244.893 20.9251 245.357 20.4131L245.993 21.1571C245.705 21.4931 245.345 21.7491 244.913 21.9251C244.489 22.1011 244.013 22.1891 243.485 22.1891C242.813 22.1891 242.217 22.0531 241.697 21.7811C241.177 21.5011 240.773 21.1131 240.485 20.6171C240.205 20.1211 240.065 19.5611 240.065 18.9371C240.065 18.3211 240.201 17.7651 240.473 17.2691C240.753 16.7731 241.133 16.3891 241.613 16.1171C242.101 15.8371 242.649 15.6971 243.257 15.6971C243.865 15.6971 244.405 15.8371 244.877 16.1171C245.357 16.3891 245.729 16.7731 245.993 17.2691C246.265 17.7651 246.401 18.3331 246.401 18.9731ZM243.257 16.6691C242.705 16.6691 242.241 16.8371 241.865 17.1731C241.497 17.5091 241.281 17.9491 241.217 18.4931H245.297C245.233 17.9571 245.013 17.5211 244.637 17.1851C244.269 16.8411 243.809 16.6691 243.257 16.6691ZM253.543 15.7571V22.1171H252.391V16.7651H249.655L249.583 18.1811C249.543 19.0371 249.467 19.7531 249.355 20.3291C249.243 20.8971 249.059 21.3531 248.803 21.6971C248.547 22.0411 248.191 22.2131 247.735 22.2131C247.527 22.2131 247.291 22.1771 247.027 22.1051L247.099 21.1331C247.203 21.1571 247.299 21.1691 247.387 21.1691C247.707 21.1691 247.947 21.0291 248.107 20.7491C248.267 20.4691 248.371 20.1371 248.419 19.7531C248.467 19.3691 248.511 18.8211 248.551 18.1091L248.659 15.7571H253.543ZM258.71 17.9171C259.518 17.9251 260.134 18.1091 260.558 18.4691C260.982 18.8291 261.194 19.3371 261.194 19.9931C261.194 20.6811 260.962 21.2131 260.498 21.5891C260.042 21.9571 259.386 22.1371 258.53 22.1291L255.77 22.1171V15.7571H256.922V17.9051L258.71 17.9171ZM258.434 21.2531C258.954 21.2611 259.346 21.1571 259.61 20.9411C259.882 20.7251 260.018 20.4051 260.018 19.9811C260.018 19.5651 259.886 19.2611 259.622 19.0691C259.366 18.8771 258.97 18.7771 258.434 18.7691L256.922 18.7451V21.2411L258.434 21.2531ZM265.444 22.1891C264.796 22.1891 264.216 22.0491 263.704 21.7691C263.2 21.4891 262.804 21.1051 262.516 20.6171C262.228 20.1211 262.084 19.5611 262.084 18.9371C262.084 18.3131 262.228 17.7571 262.516 17.2691C262.804 16.7731 263.2 16.3891 263.704 16.1171C264.216 15.8371 264.796 15.6971 265.444 15.6971C266.02 15.6971 266.532 15.8131 266.98 16.0451C267.436 16.2771 267.788 16.6131 268.036 17.0531L267.16 17.6171C266.96 17.3131 266.712 17.0851 266.416 16.9331C266.12 16.7811 265.792 16.7051 265.432 16.7051C265.016 16.7051 264.64 16.7971 264.304 16.9811C263.976 17.1651 263.716 17.4291 263.524 17.7731C263.34 18.1091 263.248 18.4971 263.248 18.9371C263.248 19.3851 263.34 19.7811 263.524 20.1251C263.716 20.4611 263.976 20.7211 264.304 20.9051C264.64 21.0891 265.016 21.1811 265.432 21.1811C265.792 21.1811 266.12 21.1051 266.416 20.9531C266.712 20.8011 266.96 20.5731 267.16 20.2691L268.036 20.8211C267.788 21.2611 267.436 21.6011 266.98 21.8411C266.532 22.0731 266.02 22.1891 265.444 22.1891ZM274.186 16.7651H271.858V22.1171H270.706V16.7651H268.378V15.7571H274.186V16.7651ZM279.696 18.8171C280.52 19.0251 280.932 19.5411 280.932 20.3651C280.932 20.9251 280.72 21.3571 280.296 21.6611C279.88 21.9651 279.256 22.1171 278.424 22.1171H275.364V15.7571H278.316C279.068 15.7571 279.656 15.9011 280.08 16.1891C280.504 16.4691 280.716 16.8691 280.716 17.3891C280.716 17.7251 280.624 18.0171 280.44 18.2651C280.264 18.5051 280.016 18.6891 279.696 18.8171ZM276.492 18.4931H278.22C278.66 18.4931 278.992 18.4131 279.216 18.2531C279.448 18.0931 279.564 17.8611 279.564 17.5571C279.564 16.9491 279.116 16.6451 278.22 16.6451H276.492V18.4931ZM278.34 21.2291C278.82 21.2291 279.18 21.1531 279.42 21.0011C279.66 20.8491 279.78 20.6131 279.78 20.2931C279.78 19.9651 279.668 19.7211 279.444 19.5611C279.228 19.4011 278.884 19.3211 278.412 19.3211H276.492V21.2291H278.34ZM288.411 15.7571L285.327 22.7531C285.055 23.4011 284.735 23.8571 284.367 24.1211C284.007 24.3851 283.571 24.5171 283.059 24.5171C282.747 24.5171 282.443 24.4651 282.147 24.3611C281.859 24.2651 281.619 24.1211 281.427 23.9291L281.919 23.0651C282.247 23.3771 282.627 23.5331 283.059 23.5331C283.339 23.5331 283.571 23.4571 283.755 23.3051C283.947 23.1611 284.119 22.9091 284.271 22.5491L284.475 22.1051L281.667 15.7571H282.867L285.087 20.8451L287.283 15.7571H288.411Z" fill="#303B9B"/>
</svg>
