<svg width="233" height="28" viewBox="0 0 233 28" fill="none" xmlns="http://www.w3.org/2000/svg">
<path d="M23.1246 10.1891C22.4766 10.1891 21.8966 10.0491 21.3846 9.76907C20.8806 9.48907 20.4846 9.10507 20.1966 8.61707C19.9086 8.12107 19.7646 7.56107 19.7646 6.93707C19.7646 6.31307 19.9086 5.75707 20.1966 5.26907C20.4846 4.77307 20.8806 4.38907 21.3846 4.11707C21.8966 3.83707 22.4766 3.69707 23.1246 3.69707C23.7006 3.69707 24.2126 3.81307 24.6606 4.04506C25.1166 4.27707 25.4686 4.61307 25.7166 5.05307L24.8406 5.61707C24.6406 5.31307 24.3926 5.08507 24.0966 4.93307C23.8006 4.78107 23.4726 4.70507 23.1126 4.70507C22.6966 4.70507 22.3206 4.79707 21.9846 4.98107C21.6566 5.16507 21.3966 5.42907 21.2046 5.77307C21.0206 6.10907 20.9286 6.49707 20.9286 6.93707C20.9286 7.38507 21.0206 7.78107 21.2046 8.12507C21.3966 8.46107 21.6566 8.72107 21.9846 8.90507C22.3206 9.08907 22.6966 9.18107 23.1126 9.18107C23.4726 9.18107 23.8006 9.10507 24.0966 8.95307C24.3926 8.80107 24.6406 8.57307 24.8406 8.26907L25.7166 8.82107C25.4686 9.26107 25.1166 9.60107 24.6606 9.84107C24.2126 10.0731 23.7006 10.1891 23.1246 10.1891ZM32.8623 6.97307C32.8623 7.06107 32.8543 7.17707 32.8383 7.32107H27.6783C27.7503 7.88107 27.9943 8.33307 28.4103 8.67707C28.8343 9.01307 29.3583 9.18107 29.9823 9.18107C30.7423 9.18107 31.3543 8.92507 31.8183 8.41307L32.4543 9.15707C32.1663 9.49307 31.8063 9.74907 31.3743 9.92507C30.9503 10.1011 30.4743 10.1891 29.9463 10.1891C29.2743 10.1891 28.6783 10.0531 28.1583 9.78107C27.6383 9.50107 27.2343 9.11307 26.9463 8.61707C26.6663 8.12107 26.5263 7.56107 26.5263 6.93707C26.5263 6.32107 26.6623 5.76507 26.9343 5.26907C27.2143 4.77307 27.5943 4.38907 28.0743 4.11707C28.5623 3.83707 29.1103 3.69707 29.7183 3.69707C30.3263 3.69707 30.8663 3.83707 31.3383 4.11707C31.8183 4.38907 32.1903 4.77307 32.4543 5.26907C32.7263 5.76507 32.8623 6.33307 32.8623 6.97307ZM29.7183 4.66907C29.1663 4.66907 28.7023 4.83707 28.3263 5.17307C27.9583 5.50907 27.7423 5.94907 27.6783 6.49307H31.7583C31.6943 5.95707 31.4743 5.52107 31.0983 5.18507C30.7303 4.84107 30.2703 4.66907 29.7183 4.66907ZM34.6495 3.75707H35.8015V8.38907L39.7015 3.75707H40.7455V10.1171H39.5935V5.48507L35.7055 10.1171H34.6495V3.75707ZM37.6255 2.92906C37.0335 2.92906 36.5735 2.78907 36.2455 2.50907C35.9175 2.22107 35.7495 1.80907 35.7415 1.27306H36.5215C36.5295 1.56906 36.6295 1.80906 36.8215 1.99306C37.0215 2.16906 37.2855 2.25707 37.6135 2.25707C37.9415 2.25707 38.2055 2.16906 38.4055 1.99306C38.6055 1.80906 38.7095 1.56906 38.7175 1.27306H39.5215C39.5135 1.80907 39.3415 2.22107 39.0055 2.50907C38.6695 2.78907 38.2095 2.92906 37.6255 2.92906ZM45.7535 10.1891C45.1055 10.1891 44.5255 10.0491 44.0135 9.76907C43.5095 9.48907 43.1135 9.10507 42.8255 8.61707C42.5375 8.12107 42.3935 7.56107 42.3935 6.93707C42.3935 6.31307 42.5375 5.75707 42.8255 5.26907C43.1135 4.77307 43.5095 4.38907 44.0135 4.11707C44.5255 3.83707 45.1055 3.69707 45.7535 3.69707C46.3295 3.69707 46.8415 3.81307 47.2895 4.04506C47.7455 4.27707 48.0975 4.61307 48.3455 5.05307L47.4695 5.61707C47.2695 5.31307 47.0215 5.08507 46.7255 4.93307C46.4295 4.78107 46.1015 4.70507 45.7415 4.70507C45.3255 4.70507 44.9495 4.79707 44.6135 4.98107C44.2855 5.16507 44.0255 5.42907 43.8335 5.77307C43.6495 6.10907 43.5575 6.49707 43.5575 6.93707C43.5575 7.38507 43.6495 7.78107 43.8335 8.12507C44.0255 8.46107 44.2855 8.72107 44.6135 8.90507C44.9495 9.08907 45.3255 9.18107 45.7415 9.18107C46.1015 9.18107 46.4295 9.10507 46.7255 8.95307C47.0215 8.80107 47.2695 8.57307 47.4695 8.26907L48.3455 8.82107C48.0975 9.26107 47.7455 9.60107 47.2895 9.84107C46.8415 10.0731 46.3295 10.1891 45.7535 10.1891ZM57.169 3.75707V10.1171H56.125V5.47307L53.749 9.39707H53.245L50.893 5.46107V10.1171H49.837V3.75707H51.025L53.521 8.05307L56.089 3.75707H57.169ZM62.1352 10.1891C61.5032 10.1891 60.9352 10.0491 60.4312 9.76907C59.9272 9.48907 59.5312 9.10507 59.2432 8.61707C58.9632 8.12107 58.8232 7.56107 58.8232 6.93707C58.8232 6.31307 58.9632 5.75707 59.2432 5.26907C59.5312 4.77307 59.9272 4.38907 60.4312 4.11707C60.9352 3.83707 61.5032 3.69707 62.1352 3.69707C62.7672 3.69707 63.3312 3.83707 63.8272 4.11707C64.3312 4.38907 64.7232 4.77307 65.0032 5.26907C65.2912 5.75707 65.4352 6.31307 65.4352 6.93707C65.4352 7.56107 65.2912 8.12107 65.0032 8.61707C64.7232 9.10507 64.3312 9.48907 63.8272 9.76907C63.3312 10.0491 62.7672 10.1891 62.1352 10.1891ZM62.1352 9.18107C62.5432 9.18107 62.9072 9.08907 63.2272 8.90507C63.5552 8.71307 63.8112 8.44907 63.9952 8.11307C64.1792 7.76907 64.2712 7.37707 64.2712 6.93707C64.2712 6.49707 64.1792 6.10907 63.9952 5.77307C63.8112 5.42907 63.5552 5.16507 63.2272 4.98107C62.9072 4.79707 62.5432 4.70507 62.1352 4.70507C61.7272 4.70507 61.3592 4.79707 61.0312 4.98107C60.7112 5.16507 60.4552 5.42907 60.2632 5.77307C60.0792 6.10907 59.9872 6.49707 59.9872 6.93707C59.9872 7.37707 60.0792 7.76907 60.2632 8.11307C60.4552 8.44907 60.7112 8.71307 61.0312 8.90507C61.3592 9.08907 61.7272 9.18107 62.1352 9.18107ZM71.6043 4.76507H69.2763V10.1171H68.1243V4.76507H65.7963V3.75707H71.6043V4.76507ZM78.4934 3.75707L75.4094 10.7531C75.1374 11.4011 74.8174 11.8571 74.4494 12.1211C74.0894 12.3851 73.6534 12.5171 73.1414 12.5171C72.8294 12.5171 72.5254 12.4651 72.2294 12.3611C71.9414 12.2651 71.7014 12.1211 71.5094 11.9291L72.0014 11.0651C72.3294 11.3771 72.7094 11.5331 73.1414 11.5331C73.4214 11.5331 73.6534 11.4571 73.8374 11.3051C74.0294 11.1611 74.2014 10.9091 74.3534 10.5491L74.5574 10.1051L71.7494 3.75707H72.9494L75.1694 8.84507L77.3654 3.75707H78.4934ZM83.0449 3.69707C83.6609 3.69707 84.2129 3.83307 84.7009 4.10506C85.1889 4.37707 85.5689 4.75707 85.8409 5.24507C86.1209 5.73307 86.2609 6.29707 86.2609 6.93707C86.2609 7.57707 86.1209 8.14507 85.8409 8.64107C85.5689 9.12907 85.1889 9.50907 84.7009 9.78107C84.2129 10.0531 83.6609 10.1891 83.0449 10.1891C82.5889 10.1891 82.1689 10.1011 81.7849 9.92507C81.4089 9.74907 81.0889 9.49307 80.8249 9.15707V12.4451H79.6729V3.75707H80.7769V4.76507C81.0329 4.41307 81.3569 4.14907 81.7489 3.97307C82.1409 3.78907 82.5729 3.69707 83.0449 3.69707ZM82.9489 9.18107C83.3569 9.18107 83.7209 9.08907 84.0409 8.90507C84.3689 8.71307 84.6249 8.44907 84.8089 8.11307C85.0009 7.76907 85.0969 7.37707 85.0969 6.93707C85.0969 6.49707 85.0009 6.10907 84.8089 5.77307C84.6249 5.42907 84.3689 5.16507 84.0409 4.98107C83.7209 4.79707 83.3569 4.70507 82.9489 4.70507C82.5489 4.70507 82.1849 4.80107 81.8569 4.99307C81.5369 5.17707 81.2809 5.43707 81.0889 5.77307C80.9049 6.10907 80.8129 6.49707 80.8129 6.93707C80.8129 7.37707 80.9049 7.76907 81.0889 8.11307C81.2729 8.44907 81.5289 8.71307 81.8569 8.90507C82.1849 9.08907 82.5489 9.18107 82.9489 9.18107ZM93.4349 3.75707L90.3509 10.7531C90.0789 11.4011 89.7589 11.8571 89.3909 12.1211C89.0309 12.3851 88.5949 12.5171 88.0829 12.5171C87.7709 12.5171 87.4669 12.4651 87.1709 12.3611C86.8829 12.2651 86.6429 12.1211 86.4509 11.9291L86.9429 11.0651C87.2709 11.3771 87.6509 11.5331 88.0829 11.5331C88.3629 11.5331 88.5949 11.4571 88.7789 11.3051C88.9709 11.1611 89.1429 10.9091 89.2949 10.5491L89.4989 10.1051L86.6909 3.75707H87.8909L90.1109 8.84507L92.3069 3.75707H93.4349ZM103.674 3.75707V10.1171H94.6143V3.75707H95.7663V9.10907H98.5743V3.75707H99.7263V9.10907H102.522V3.75707H103.674ZM110.651 4.76507H108.323V10.1171H107.171V4.76507H104.843V3.75707H110.651V4.76507ZM117.54 3.75707L114.456 10.7531C114.184 11.4011 113.864 11.8571 113.496 12.1211C113.136 12.3851 112.7 12.5171 112.188 12.5171C111.876 12.5171 111.572 12.4651 111.276 12.3611C110.988 12.2651 110.748 12.1211 110.556 11.9291L111.048 11.0651C111.376 11.3771 111.756 11.5331 112.188 11.5331C112.468 11.5331 112.7 11.4571 112.884 11.3051C113.076 11.1611 113.248 10.9091 113.4 10.5491L113.604 10.1051L110.796 3.75707H111.996L114.216 8.84507L116.412 3.75707H117.54ZM124.302 3.75707L121.218 10.7531C120.946 11.4011 120.626 11.8571 120.258 12.1211C119.898 12.3851 119.462 12.5171 118.95 12.5171C118.638 12.5171 118.334 12.4651 118.038 12.3611C117.75 12.2651 117.51 12.1211 117.318 11.9291L117.81 11.0651C118.138 11.3771 118.518 11.5331 118.95 11.5331C119.23 11.5331 119.462 11.4571 119.646 11.3051C119.838 11.1611 120.01 10.9091 120.162 10.5491L120.366 10.1051L117.558 3.75707H118.758L120.978 8.84507L123.174 3.75707H124.302ZM131.176 7.42907H129.856V10.1171H128.704V3.75707H129.856V6.44507H131.2L133.264 3.75707H134.5L132.088 6.81707L134.668 10.1171H133.312L131.176 7.42907ZM141.189 3.75707L138.105 10.7531C137.833 11.4011 137.513 11.8571 137.145 12.1211C136.785 12.3851 136.349 12.5171 135.837 12.5171C135.525 12.5171 135.221 12.4651 134.925 12.3611C134.637 12.2651 134.397 12.1211 134.205 11.9291L134.697 11.0651C135.025 11.3771 135.405 11.5331 135.837 11.5331C136.117 11.5331 136.349 11.4571 136.533 11.3051C136.725 11.1611 136.897 10.9091 137.049 10.5491L137.253 10.1051L134.445 3.75707H135.645L137.865 8.84507L140.061 3.75707H141.189ZM145.74 3.69707C146.356 3.69707 146.908 3.83307 147.396 4.10506C147.884 4.37707 148.264 4.75707 148.536 5.24507C148.816 5.73307 148.956 6.29707 148.956 6.93707C148.956 7.57707 148.816 8.14507 148.536 8.64107C148.264 9.12907 147.884 9.50907 147.396 9.78107C146.908 10.0531 146.356 10.1891 145.74 10.1891C145.284 10.1891 144.864 10.1011 144.48 9.92507C144.104 9.74907 143.784 9.49307 143.52 9.15707V12.4451H142.368V3.75707H143.472V4.76507C143.728 4.41307 144.052 4.14907 144.444 3.97307C144.836 3.78907 145.268 3.69707 145.74 3.69707ZM145.644 9.18107C146.052 9.18107 146.416 9.08907 146.736 8.90507C147.064 8.71307 147.32 8.44907 147.504 8.11307C147.696 7.76907 147.792 7.37707 147.792 6.93707C147.792 6.49707 147.696 6.10907 147.504 5.77307C147.32 5.42907 147.064 5.16507 146.736 4.98107C146.416 4.79707 146.052 4.70507 145.644 4.70507C145.244 4.70507 144.88 4.80107 144.552 4.99307C144.232 5.17707 143.976 5.43707 143.784 5.77307C143.6 6.10907 143.508 6.49707 143.508 6.93707C143.508 7.37707 143.6 7.76907 143.784 8.11307C143.968 8.44907 144.224 8.71307 144.552 8.90507C144.88 9.08907 145.244 9.18107 145.644 9.18107ZM156.13 3.75707L153.046 10.7531C152.774 11.4011 152.454 11.8571 152.086 12.1211C151.726 12.3851 151.29 12.5171 150.778 12.5171C150.466 12.5171 150.162 12.4651 149.866 12.3611C149.578 12.2651 149.338 12.1211 149.146 11.9291L149.638 11.0651C149.966 11.3771 150.346 11.5331 150.778 11.5331C151.058 11.5331 151.29 11.4571 151.474 11.3051C151.666 11.1611 151.838 10.9091 151.99 10.5491L152.194 10.1051L149.386 3.75707H150.586L152.806 8.84507L155.002 3.75707H156.13ZM162.43 3.75707V10.1171H161.278V4.76507H158.542L158.47 6.18107C158.43 7.03707 158.354 7.75307 158.242 8.32907C158.13 8.89707 157.946 9.35307 157.69 9.69707C157.434 10.0411 157.078 10.2131 156.622 10.2131C156.414 10.2131 156.178 10.1771 155.914 10.1051L155.986 9.13307C156.09 9.15707 156.186 9.16907 156.274 9.16907C156.594 9.16907 156.834 9.02907 156.994 8.74907C157.154 8.46907 157.258 8.13707 157.306 7.75307C157.354 7.36907 157.398 6.82107 157.438 6.10907L157.546 3.75707H162.43ZM170.333 3.75707L167.249 10.7531C166.977 11.4011 166.657 11.8571 166.289 12.1211C165.929 12.3851 165.493 12.5171 164.981 12.5171C164.669 12.5171 164.365 12.4651 164.069 12.3611C163.781 12.2651 163.541 12.1211 163.349 11.9291L163.841 11.0651C164.169 11.3771 164.549 11.5331 164.981 11.5331C165.261 11.5331 165.493 11.4571 165.677 11.3051C165.869 11.1611 166.041 10.9091 166.193 10.5491L166.397 10.1051L163.589 3.75707H164.789L167.009 8.84507L169.205 3.75707H170.333ZM180.573 3.75707V10.1171H171.513V3.75707H172.665V9.10907H175.473V3.75707H176.625V9.10907H179.421V3.75707H180.573ZM189.272 3.97307C189.864 3.97307 190.392 4.10507 190.856 4.36907C191.32 4.63307 191.68 5.00107 191.936 5.47307C192.2 5.93707 192.332 6.46907 192.332 7.06907C192.332 7.68507 192.192 8.23307 191.912 8.71307C191.64 9.18507 191.252 9.55307 190.748 9.81707C190.252 10.0811 189.684 10.2131 189.044 10.2131C187.964 10.2131 187.128 9.84507 186.536 9.10907C185.952 8.36507 185.66 7.32107 185.66 5.97707C185.66 4.67307 185.928 3.65307 186.464 2.91707C187 2.17307 187.82 1.68107 188.924 1.44106L191.828 0.793065L191.996 1.84907L189.32 2.42507C188.488 2.60907 187.868 2.92107 187.46 3.36107C187.052 3.80107 186.82 4.43307 186.764 5.25707C187.036 4.84907 187.388 4.53307 187.82 4.30907C188.252 4.08507 188.736 3.97307 189.272 3.97307ZM189.068 9.25307C189.476 9.25307 189.836 9.16107 190.148 8.97707C190.468 8.79307 190.716 8.54107 190.892 8.22107C191.068 7.89307 191.156 7.52107 191.156 7.10507C191.156 6.47307 190.964 5.96507 190.58 5.58107C190.196 5.19707 189.692 5.00507 189.068 5.00507C188.444 5.00507 187.936 5.19707 187.544 5.58107C187.16 5.96507 186.968 6.47307 186.968 7.10507C186.968 7.52107 187.056 7.89307 187.232 8.22107C187.416 8.54107 187.668 8.79307 187.988 8.97707C188.308 9.16107 188.668 9.25307 189.068 9.25307ZM196.702 10.1891C196.07 10.1891 195.502 10.0491 194.998 9.76907C194.494 9.48907 194.098 9.10507 193.81 8.61707C193.53 8.12107 193.39 7.56107 193.39 6.93707C193.39 6.31307 193.53 5.75707 193.81 5.26907C194.098 4.77307 194.494 4.38907 194.998 4.11707C195.502 3.83707 196.07 3.69707 196.702 3.69707C197.334 3.69707 197.898 3.83707 198.394 4.11707C198.898 4.38907 199.29 4.77307 199.57 5.26907C199.858 5.75707 200.002 6.31307 200.002 6.93707C200.002 7.56107 199.858 8.12107 199.57 8.61707C199.29 9.10507 198.898 9.48907 198.394 9.76907C197.898 10.0491 197.334 10.1891 196.702 10.1891ZM196.702 9.18107C197.11 9.18107 197.474 9.08907 197.794 8.90507C198.122 8.71307 198.378 8.44907 198.562 8.11307C198.746 7.76907 198.838 7.37707 198.838 6.93707C198.838 6.49707 198.746 6.10907 198.562 5.77307C198.378 5.42907 198.122 5.16507 197.794 4.98107C197.474 4.79707 197.11 4.70507 196.702 4.70507C196.294 4.70507 195.926 4.79707 195.598 4.98107C195.278 5.16507 195.022 5.42907 194.83 5.77307C194.646 6.10907 194.554 6.49707 194.554 6.93707C194.554 7.37707 194.646 7.76907 194.83 8.11307C195.022 8.44907 195.278 8.71307 195.598 8.90507C195.926 9.08907 196.294 9.18107 196.702 9.18107ZM207.293 3.69707C207.909 3.69707 208.461 3.83707 208.949 4.11707C209.437 4.38907 209.821 4.77307 210.101 5.26907C210.381 5.75707 210.521 6.31307 210.521 6.93707C210.521 7.56107 210.381 8.12107 210.101 8.61707C209.821 9.10507 209.437 9.48907 208.949 9.76907C208.461 10.0491 207.909 10.1891 207.293 10.1891C206.733 10.1891 206.225 10.0731 205.769 9.84107C205.313 9.60907 204.937 9.28507 204.641 8.86907C204.353 8.44507 204.173 7.96507 204.101 7.42907H202.817V10.1171H201.665V3.75707H202.817V6.36107H204.113C204.193 5.83307 204.377 5.36907 204.665 4.96907C204.961 4.56107 205.333 4.24907 205.781 4.03307C206.237 3.80907 206.741 3.69707 207.293 3.69707ZM207.293 9.18107C207.685 9.18107 208.037 9.08907 208.349 8.90507C208.669 8.72107 208.921 8.46107 209.105 8.12507C209.289 7.78107 209.381 7.38507 209.381 6.93707C209.381 6.49707 209.289 6.10907 209.105 5.77307C208.921 5.42907 208.669 5.16507 208.349 4.98107C208.037 4.79707 207.685 4.70507 207.293 4.70507C206.901 4.70507 206.545 4.79707 206.225 4.98107C205.905 5.16507 205.653 5.42907 205.469 5.77307C205.293 6.10907 205.205 6.49707 205.205 6.93707C205.205 7.38507 205.293 7.78107 205.469 8.12507C205.653 8.46107 205.905 8.72107 206.225 8.90507C206.545 9.08907 206.901 9.18107 207.293 9.18107ZM212.177 3.75707H213.329V6.45707H216.953V3.75707H218.105V10.1171H216.953V7.45307H213.329V10.1171H212.177V3.75707ZM225.421 3.75707V10.1171H224.269V7.54907C223.581 7.86907 222.897 8.02907 222.217 8.02907C221.425 8.02907 220.813 7.84507 220.381 7.47707C219.949 7.10907 219.733 6.55707 219.733 5.82107V3.75707H220.885V5.74907C220.885 6.18907 221.021 6.52107 221.293 6.74507C221.573 6.96907 221.961 7.08107 222.457 7.08107C223.017 7.08107 223.621 6.94107 224.269 6.66107V3.75707H225.421ZM229.925 3.69707C230.805 3.69707 231.477 3.91307 231.941 4.34506C232.413 4.77707 232.649 5.42107 232.649 6.27707V10.1171H231.557V9.27707C231.365 9.57307 231.089 9.80107 230.729 9.96107C230.377 10.1131 229.957 10.1891 229.469 10.1891C228.757 10.1891 228.185 10.0171 227.753 9.67307C227.329 9.32907 227.117 8.87707 227.117 8.31707C227.117 7.75707 227.321 7.30907 227.729 6.97307C228.137 6.62907 228.785 6.45707 229.673 6.45707H231.497V6.22907C231.497 5.73307 231.353 5.35307 231.065 5.08907C230.777 4.82507 230.353 4.69307 229.793 4.69307C229.417 4.69307 229.049 4.75707 228.689 4.88507C228.329 5.00507 228.025 5.16907 227.777 5.37707L227.297 4.51307C227.625 4.24907 228.017 4.04907 228.473 3.91307C228.929 3.76907 229.413 3.69707 229.925 3.69707ZM229.661 9.30107C230.101 9.30107 230.481 9.20507 230.801 9.01307C231.121 8.81307 231.353 8.53307 231.497 8.17307V7.28507H229.721C228.745 7.28507 228.257 7.61307 228.257 8.26907C228.257 8.58907 228.381 8.84107 228.629 9.02507C228.877 9.20907 229.221 9.30107 229.661 9.30107ZM2.85267 18.6851C3.50067 18.6851 4.08467 18.8251 4.60467 19.1051C5.13267 19.3851 5.54467 19.7731 5.84067 20.2691C6.13667 20.7651 6.28467 21.3211 6.28467 21.9371C6.28467 22.5611 6.13667 23.1211 5.84067 23.6171C5.54467 24.1131 5.13267 24.5011 4.60467 24.7811C4.08467 25.0611 3.50067 25.2011 2.85267 25.2011C2.29267 25.2011 1.78467 25.1131 1.32867 24.9371C0.880665 24.7611 0.500665 24.5051 0.188665 24.1691L0.860665 23.4971C1.37267 24.0011 2.02067 24.2531 2.80467 24.2531C3.42867 24.2531 3.96067 24.0771 4.40067 23.7251C4.84067 23.3651 5.10467 22.8971 5.19267 22.3211H2.00067V21.4691H5.16867C5.06467 20.9171 4.79667 20.4731 4.36467 20.1371C3.93267 19.7931 3.41267 19.6211 2.80467 19.6211C2.02867 19.6211 1.38067 19.8771 0.860665 20.3891L0.188665 19.7291C0.500665 19.3851 0.884665 19.1251 1.34067 18.9491C1.79667 18.7731 2.30067 18.6851 2.85267 18.6851ZM10.391 22.4291H9.07101V25.1171H7.91901V18.7571H9.07101V21.4451H10.415L12.479 18.7571H13.715L11.303 21.8171L13.883 25.1171H12.527L10.391 22.4291ZM17.6519 25.1891C17.0039 25.1891 16.4239 25.0491 15.9119 24.7691C15.4079 24.4891 15.0119 24.1051 14.7239 23.6171C14.4359 23.1211 14.2919 22.5611 14.2919 21.9371C14.2919 21.3131 14.4359 20.7571 14.7239 20.2691C15.0119 19.7731 15.4079 19.3891 15.9119 19.1171C16.4239 18.8371 17.0039 18.6971 17.6519 18.6971C18.2279 18.6971 18.7399 18.8131 19.1879 19.0451C19.6439 19.2771 19.9959 19.6131 20.2439 20.0531L19.3679 20.6171C19.1679 20.3131 18.9199 20.0851 18.6239 19.9331C18.3279 19.7811 17.9999 19.7051 17.6399 19.7051C17.2239 19.7051 16.8479 19.7971 16.5119 19.9811C16.1839 20.1651 15.9239 20.4291 15.7319 20.7731C15.5479 21.1091 15.4559 21.4971 15.4559 21.9371C15.4559 22.3851 15.5479 22.7811 15.7319 23.1251C15.9239 23.4611 16.1839 23.7211 16.5119 23.9051C16.8479 24.0891 17.2239 24.1811 17.6399 24.1811C17.9999 24.1811 18.3279 24.1051 18.6239 23.9531C18.9199 23.8011 19.1679 23.5731 19.3679 23.2691L20.2439 23.8211C19.9959 24.2611 19.6439 24.6011 19.1879 24.8411C18.7399 25.0731 18.2279 25.1891 17.6519 25.1891ZM27.6274 18.7571V25.1171H26.4754V19.7651H22.8874V25.1171H21.7354V18.7571H27.6274ZM35.6045 21.9731C35.6045 22.0611 35.5965 22.1771 35.5805 22.3211H30.4205C30.4925 22.8811 30.7365 23.3331 31.1525 23.6771C31.5765 24.0131 32.1005 24.1811 32.7245 24.1811C33.4845 24.1811 34.0965 23.9251 34.5605 23.4131L35.1965 24.1571C34.9085 24.4931 34.5485 24.7491 34.1165 24.9251C33.6925 25.1011 33.2165 25.1891 32.6885 25.1891C32.0165 25.1891 31.4205 25.0531 30.9005 24.7811C30.3805 24.5011 29.9765 24.1131 29.6885 23.6171C29.4085 23.1211 29.2685 22.5611 29.2685 21.9371C29.2685 21.3211 29.4045 20.7651 29.6765 20.2691C29.9565 19.7731 30.3365 19.3891 30.8165 19.1171C31.3045 18.8371 31.8525 18.6971 32.4605 18.6971C33.0685 18.6971 33.6085 18.8371 34.0805 19.1171C34.5605 19.3891 34.9325 19.7731 35.1965 20.2691C35.4685 20.7651 35.6045 21.3331 35.6045 21.9731ZM32.4605 19.6691C31.9085 19.6691 31.4445 19.8371 31.0685 20.1731C30.7005 20.5091 30.4845 20.9491 30.4205 21.4931H34.5005C34.4365 20.9571 34.2165 20.5211 33.8405 20.1851C33.4725 19.8411 33.0125 19.6691 32.4605 19.6691ZM40.7637 18.6971C41.3797 18.6971 41.9317 18.8331 42.4197 19.1051C42.9077 19.3771 43.2877 19.7571 43.5597 20.2451C43.8397 20.7331 43.9797 21.2971 43.9797 21.9371C43.9797 22.5771 43.8397 23.1451 43.5597 23.6411C43.2877 24.1291 42.9077 24.5091 42.4197 24.7811C41.9317 25.0531 41.3797 25.1891 40.7637 25.1891C40.3077 25.1891 39.8877 25.1011 39.5037 24.9251C39.1277 24.7491 38.8077 24.4931 38.5437 24.1571V27.4451H37.3917V18.7571H38.4957V19.7651C38.7517 19.4131 39.0757 19.1491 39.4677 18.9731C39.8597 18.7891 40.2917 18.6971 40.7637 18.6971ZM40.6677 24.1811C41.0757 24.1811 41.4397 24.0891 41.7597 23.9051C42.0877 23.7131 42.3437 23.4491 42.5277 23.1131C42.7197 22.7691 42.8157 22.3771 42.8157 21.9371C42.8157 21.4971 42.7197 21.1091 42.5277 20.7731C42.3437 20.4291 42.0877 20.1651 41.7597 19.9811C41.4397 19.7971 41.0757 19.7051 40.6677 19.7051C40.2677 19.7051 39.9037 19.8011 39.5757 19.9931C39.2557 20.1771 38.9997 20.4371 38.8077 20.7731C38.6237 21.1091 38.5317 21.4971 38.5317 21.9371C38.5317 22.3771 38.6237 22.7691 38.8077 23.1131C38.9917 23.4491 39.2477 23.7131 39.5757 23.9051C39.9037 24.0891 40.2677 24.1811 40.6677 24.1811ZM50.159 19.7651H47.831V25.1171H46.679V19.7651H44.351V18.7571H50.159V19.7651ZM56.1942 19.7651H53.8662V25.1171H52.7142V19.7651H50.3862V18.7571H56.1942V19.7651ZM62.8389 21.9731C62.8389 22.0611 62.8309 22.1771 62.8149 22.3211H57.6549C57.7269 22.8811 57.9709 23.3331 58.3869 23.6771C58.8109 24.0131 59.3349 24.1811 59.9589 24.1811C60.7189 24.1811 61.3309 23.9251 61.7949 23.4131L62.4309 24.1571C62.1429 24.4931 61.7829 24.7491 61.3509 24.9251C60.9269 25.1011 60.4509 25.1891 59.9229 25.1891C59.2509 25.1891 58.6549 25.0531 58.1349 24.7811C57.6149 24.5011 57.2109 24.1131 56.9229 23.6171C56.6429 23.1211 56.5029 22.5611 56.5029 21.9371C56.5029 21.3211 56.6389 20.7651 56.9109 20.2691C57.1909 19.7731 57.5709 19.3891 58.0509 19.1171C58.5389 18.8371 59.0869 18.6971 59.6949 18.6971C60.3029 18.6971 60.8429 18.8371 61.3149 19.1171C61.7949 19.3891 62.1669 19.7731 62.4309 20.2691C62.7029 20.7651 62.8389 21.3331 62.8389 21.9731ZM59.6949 19.6691C59.1429 19.6691 58.6789 19.8371 58.3029 20.1731C57.9349 20.5091 57.7189 20.9491 57.6549 21.4931H61.7349C61.6709 20.9571 61.4509 20.5211 61.0749 20.1851C60.7069 19.8411 60.2469 19.6691 59.6949 19.6691ZM67.998 18.6971C68.614 18.6971 69.166 18.8331 69.654 19.1051C70.142 19.3771 70.522 19.7571 70.794 20.2451C71.074 20.7331 71.214 21.2971 71.214 21.9371C71.214 22.5771 71.074 23.1451 70.794 23.6411C70.522 24.1291 70.142 24.5091 69.654 24.7811C69.166 25.0531 68.614 25.1891 67.998 25.1891C67.542 25.1891 67.122 25.1011 66.738 24.9251C66.362 24.7491 66.042 24.4931 65.778 24.1571V27.4451H64.626V18.7571H65.73V19.7651C65.986 19.4131 66.31 19.1491 66.702 18.9731C67.094 18.7891 67.526 18.6971 67.998 18.6971ZM67.902 24.1811C68.31 24.1811 68.674 24.0891 68.994 23.9051C69.322 23.7131 69.578 23.4491 69.762 23.1131C69.954 22.7691 70.05 22.3771 70.05 21.9371C70.05 21.4971 69.954 21.1091 69.762 20.7731C69.578 20.4291 69.322 20.1651 68.994 19.9811C68.674 19.7971 68.31 19.7051 67.902 19.7051C67.502 19.7051 67.138 19.8011 66.81 19.9931C66.49 20.1771 66.234 20.4371 66.042 20.7731C65.858 21.1091 65.766 21.4971 65.766 21.9371C65.766 22.3771 65.858 22.7691 66.042 23.1131C66.226 23.4491 66.482 23.7131 66.81 23.9051C67.138 24.0891 67.502 24.1811 67.902 24.1811ZM79.3089 24.1091V26.5931H78.2289V25.1171H72.9129V26.5931H71.8209V24.1091H72.1569C72.5649 24.0851 72.8449 23.7971 72.9969 23.2451C73.1489 22.6931 73.2529 21.9131 73.3089 20.9051L73.4049 18.7571H78.3369V24.1091H79.3089ZM74.3649 20.9891C74.3329 21.7891 74.2649 22.4531 74.1609 22.9811C74.0649 23.5011 73.8849 23.8771 73.6209 24.1091H77.1849V19.7651H74.4249L74.3649 20.9891ZM80.8096 18.7571H81.9616V23.3891L85.8616 18.7571H86.9056V25.1171H85.7536V20.4851L81.8656 25.1171H80.8096V18.7571ZM89.1417 18.7571H90.2937V21.4571H93.9177V18.7571H95.0697V25.1171H93.9177V22.4531H90.2937V25.1171H89.1417V18.7571ZM102.368 18.6851C103.016 18.6851 103.6 18.8251 104.12 19.1051C104.648 19.3851 105.06 19.7731 105.356 20.2691C105.652 20.7651 105.8 21.3211 105.8 21.9371C105.8 22.5611 105.652 23.1211 105.356 23.6171C105.06 24.1131 104.648 24.5011 104.12 24.7811C103.6 25.0611 103.016 25.2011 102.368 25.2011C101.808 25.2011 101.3 25.1131 100.844 24.9371C100.396 24.7611 100.016 24.5051 99.7043 24.1691L100.376 23.4971C100.888 24.0011 101.536 24.2531 102.32 24.2531C102.944 24.2531 103.476 24.0771 103.916 23.7251C104.356 23.3651 104.62 22.8971 104.708 22.3211H101.516V21.4691H104.684C104.58 20.9171 104.312 20.4731 103.88 20.1371C103.448 19.7931 102.928 19.6211 102.32 19.6211C101.544 19.6211 100.896 19.8771 100.376 20.3891L99.7043 19.7291C100.016 19.3851 100.4 19.1251 100.856 18.9491C101.312 18.7731 101.816 18.6851 102.368 18.6851ZM112.848 18.7571V25.1171H111.696V19.7651H108.96L108.888 21.1811C108.848 22.0371 108.772 22.7531 108.66 23.3291C108.548 23.8971 108.364 24.3531 108.108 24.6971C107.852 25.0411 107.496 25.2131 107.04 25.2131C106.832 25.2131 106.596 25.1771 106.332 25.1051L106.404 24.1331C106.508 24.1571 106.604 24.1691 106.692 24.1691C107.012 24.1691 107.252 24.0291 107.412 23.7491C107.572 23.4691 107.676 23.1371 107.724 22.7531C107.772 22.3691 107.816 21.8211 107.856 21.1091L107.964 18.7571H112.848ZM117.343 18.6971C118.223 18.6971 118.895 18.9131 119.359 19.3451C119.831 19.7771 120.067 20.4211 120.067 21.2771V25.1171H118.975V24.2771C118.783 24.5731 118.507 24.8011 118.147 24.9611C117.795 25.1131 117.375 25.1891 116.887 25.1891C116.175 25.1891 115.603 25.0171 115.171 24.6731C114.747 24.3291 114.535 23.8771 114.535 23.3171C114.535 22.7571 114.739 22.3091 115.147 21.9731C115.555 21.6291 116.203 21.4571 117.091 21.4571H118.915V21.2291C118.915 20.7331 118.771 20.3531 118.483 20.0891C118.195 19.8251 117.771 19.6931 117.211 19.6931C116.835 19.6931 116.467 19.7571 116.107 19.8851C115.747 20.0051 115.443 20.1691 115.195 20.3771L114.715 19.5131C115.043 19.2491 115.435 19.0491 115.891 18.9131C116.347 18.7691 116.831 18.6971 117.343 18.6971ZM117.079 24.3011C117.519 24.3011 117.899 24.2051 118.219 24.0131C118.539 23.8131 118.771 23.5331 118.915 23.1731V22.2851H117.139C116.163 22.2851 115.675 22.6131 115.675 23.2691C115.675 23.5891 115.799 23.8411 116.047 24.0251C116.295 24.2091 116.639 24.3011 117.079 24.3011ZM125.514 18.6971C126.13 18.6971 126.682 18.8331 127.17 19.1051C127.658 19.3771 128.038 19.7571 128.31 20.2451C128.59 20.7331 128.73 21.2971 128.73 21.9371C128.73 22.5771 128.59 23.1451 128.31 23.6411C128.038 24.1291 127.658 24.5091 127.17 24.7811C126.682 25.0531 126.13 25.1891 125.514 25.1891C125.058 25.1891 124.638 25.1011 124.254 24.9251C123.878 24.7491 123.558 24.4931 123.294 24.1571V27.4451H122.142V18.7571H123.246V19.7651C123.502 19.4131 123.826 19.1491 124.218 18.9731C124.61 18.7891 125.042 18.6971 125.514 18.6971ZM125.418 24.1811C125.826 24.1811 126.19 24.0891 126.51 23.9051C126.838 23.7131 127.094 23.4491 127.278 23.1131C127.47 22.7691 127.566 22.3771 127.566 21.9371C127.566 21.4971 127.47 21.1091 127.278 20.7731C127.094 20.4291 126.838 20.1651 126.51 19.9811C126.19 19.7971 125.826 19.7051 125.418 19.7051C125.018 19.7051 124.654 19.8011 124.326 19.9931C124.006 20.1771 123.75 20.4371 123.558 20.7731C123.374 21.1091 123.282 21.4971 123.282 21.9371C123.282 22.3771 123.374 22.7691 123.558 23.1131C123.742 23.4491 123.998 23.7131 124.326 23.9051C124.654 24.0891 125.018 24.1811 125.418 24.1811ZM132.613 18.6971C133.493 18.6971 134.165 18.9131 134.629 19.3451C135.101 19.7771 135.337 20.4211 135.337 21.2771V25.1171H134.245V24.2771C134.053 24.5731 133.777 24.8011 133.417 24.9611C133.065 25.1131 132.645 25.1891 132.157 25.1891C131.445 25.1891 130.873 25.0171 130.441 24.6731C130.017 24.3291 129.805 23.8771 129.805 23.3171C129.805 22.7571 130.009 22.3091 130.417 21.9731C130.825 21.6291 131.473 21.4571 132.361 21.4571H134.185V21.2291C134.185 20.7331 134.041 20.3531 133.753 20.0891C133.465 19.8251 133.041 19.6931 132.481 19.6931C132.105 19.6931 131.737 19.7571 131.377 19.8851C131.017 20.0051 130.713 20.1691 130.465 20.3771L129.985 19.5131C130.313 19.2491 130.705 19.0491 131.161 18.9131C131.617 18.7691 132.101 18.6971 132.613 18.6971ZM132.349 24.3011C132.789 24.3011 133.169 24.2051 133.489 24.0131C133.809 23.8131 134.041 23.5331 134.185 23.1731V22.2851H132.409C131.433 22.2851 130.945 22.6131 130.945 23.2691C130.945 23.5891 131.069 23.8411 131.317 24.0251C131.565 24.2091 131.909 24.3011 132.349 24.3011ZM142.871 18.7571V25.1171H141.719V19.7651H138.983L138.911 21.1811C138.871 22.0371 138.795 22.7531 138.683 23.3291C138.571 23.8971 138.387 24.3531 138.131 24.6971C137.875 25.0411 137.519 25.2131 137.063 25.2131C136.855 25.2131 136.619 25.1771 136.355 25.1051L136.427 24.1331C136.531 24.1571 136.627 24.1691 136.715 24.1691C137.035 24.1691 137.275 24.0291 137.435 23.7491C137.595 23.4691 137.699 23.1371 137.747 22.7531C137.795 22.3691 137.839 21.8211 137.879 21.1091L137.987 18.7571H142.871ZM147.967 20.9171C148.767 20.9251 149.379 21.1091 149.803 21.4691C150.227 21.8291 150.439 22.3371 150.439 22.9931C150.439 23.6811 150.207 24.2131 149.743 24.5891C149.287 24.9571 148.631 25.1371 147.775 25.1291L145.099 25.1171V18.7571H146.251V20.9051L147.967 20.9171ZM151.387 18.7571H152.539V25.1171H151.387V18.7571ZM147.691 24.2531C148.211 24.2611 148.603 24.1571 148.867 23.9411C149.139 23.7251 149.275 23.4051 149.275 22.9811C149.275 22.5651 149.143 22.2611 148.879 22.0691C148.615 21.8771 148.219 21.7771 147.691 21.7691L146.251 21.7451V24.2411L147.691 24.2531ZM157.25 22.4291H155.93V25.1171H154.778V18.7571H155.93V21.4451H157.274L159.338 18.7571H160.574L158.162 21.8171L160.742 25.1171H159.386L157.25 22.4291ZM167.441 18.6971C168.321 18.6971 168.993 18.9131 169.457 19.3451C169.929 19.7771 170.165 20.4211 170.165 21.2771V25.1171H169.073V24.2771C168.881 24.5731 168.605 24.8011 168.245 24.9611C167.893 25.1131 167.473 25.1891 166.985 25.1891C166.273 25.1891 165.701 25.0171 165.269 24.6731C164.845 24.3291 164.633 23.8771 164.633 23.3171C164.633 22.7571 164.837 22.3091 165.245 21.9731C165.653 21.6291 166.301 21.4571 167.189 21.4571H169.013V21.2291C169.013 20.7331 168.869 20.3531 168.581 20.0891C168.293 19.8251 167.869 19.6931 167.309 19.6931C166.933 19.6931 166.565 19.7571 166.205 19.8851C165.845 20.0051 165.541 20.1691 165.293 20.3771L164.813 19.5131C165.141 19.2491 165.533 19.0491 165.989 18.9131C166.445 18.7691 166.929 18.6971 167.441 18.6971ZM167.177 24.3011C167.617 24.3011 167.997 24.2051 168.317 24.0131C168.637 23.8131 168.869 23.5331 169.013 23.1731V22.2851H167.237C166.261 22.2851 165.773 22.6131 165.773 23.2691C165.773 23.5891 165.897 23.8411 166.145 24.0251C166.393 24.2091 166.737 24.3011 167.177 24.3011ZM175.011 25.1891C174.363 25.1891 173.783 25.0491 173.271 24.7691C172.767 24.4891 172.371 24.1051 172.083 23.6171C171.795 23.1211 171.651 22.5611 171.651 21.9371C171.651 21.3131 171.795 20.7571 172.083 20.2691C172.371 19.7731 172.767 19.3891 173.271 19.1171C173.783 18.8371 174.363 18.6971 175.011 18.6971C175.587 18.6971 176.099 18.8131 176.547 19.0451C177.003 19.2771 177.355 19.6131 177.603 20.0531L176.727 20.6171C176.527 20.3131 176.279 20.0851 175.983 19.9331C175.687 19.7811 175.359 19.7051 174.999 19.7051C174.583 19.7051 174.207 19.7971 173.871 19.9811C173.543 20.1651 173.283 20.4291 173.091 20.7731C172.907 21.1091 172.815 21.4971 172.815 21.9371C172.815 22.3851 172.907 22.7811 173.091 23.1251C173.283 23.4611 173.543 23.7211 173.871 23.9051C174.207 24.0891 174.583 24.1811 174.999 24.1811C175.359 24.1811 175.687 24.1051 175.983 23.9531C176.279 23.8011 176.527 23.5731 176.727 23.2691L177.603 23.8211C177.355 24.2611 177.003 24.6011 176.547 24.8411C176.099 25.0731 175.587 25.1891 175.011 25.1891ZM181.773 25.1891C181.125 25.1891 180.545 25.0491 180.033 24.7691C179.529 24.4891 179.133 24.1051 178.845 23.6171C178.557 23.1211 178.413 22.5611 178.413 21.9371C178.413 21.3131 178.557 20.7571 178.845 20.2691C179.133 19.7731 179.529 19.3891 180.033 19.1171C180.545 18.8371 181.125 18.6971 181.773 18.6971C182.349 18.6971 182.861 18.8131 183.309 19.0451C183.765 19.2771 184.117 19.6131 184.365 20.0531L183.489 20.6171C183.289 20.3131 183.041 20.0851 182.745 19.9331C182.449 19.7811 182.121 19.7051 181.761 19.7051C181.345 19.7051 180.969 19.7971 180.633 19.9811C180.305 20.1651 180.045 20.4291 179.853 20.7731C179.669 21.1091 179.577 21.4971 179.577 21.9371C179.577 22.3851 179.669 22.7811 179.853 23.1251C180.045 23.4611 180.305 23.7211 180.633 23.9051C180.969 24.0891 181.345 24.1811 181.761 24.1811C182.121 24.1811 182.449 24.1051 182.745 23.9531C183.041 23.8011 183.289 23.5731 183.489 23.2691L184.365 23.8211C184.117 24.2611 183.765 24.6011 183.309 24.8411C182.861 25.0731 182.349 25.1891 181.773 25.1891ZM188.487 25.1891C187.855 25.1891 187.287 25.0491 186.783 24.7691C186.279 24.4891 185.883 24.1051 185.595 23.6171C185.315 23.1211 185.175 22.5611 185.175 21.9371C185.175 21.3131 185.315 20.7571 185.595 20.2691C185.883 19.7731 186.279 19.3891 186.783 19.1171C187.287 18.8371 187.855 18.6971 188.487 18.6971C189.119 18.6971 189.683 18.8371 190.179 19.1171C190.683 19.3891 191.075 19.7731 191.355 20.2691C191.643 20.7571 191.787 21.3131 191.787 21.9371C191.787 22.5611 191.643 23.1211 191.355 23.6171C191.075 24.1051 190.683 24.4891 190.179 24.7691C189.683 25.0491 189.119 25.1891 188.487 25.1891ZM188.487 24.1811C188.895 24.1811 189.259 24.0891 189.579 23.9051C189.907 23.7131 190.163 23.4491 190.347 23.1131C190.531 22.7691 190.623 22.3771 190.623 21.9371C190.623 21.4971 190.531 21.1091 190.347 20.7731C190.163 20.4291 189.907 20.1651 189.579 19.9811C189.259 19.7971 188.895 19.7051 188.487 19.7051C188.079 19.7051 187.711 19.7971 187.383 19.9811C187.063 20.1651 186.807 20.4291 186.615 20.7731C186.431 21.1091 186.339 21.4971 186.339 21.9371C186.339 22.3771 186.431 22.7691 186.615 23.1131C186.807 23.4491 187.063 23.7131 187.383 23.9051C187.711 24.0891 188.079 24.1811 188.487 24.1811ZM200.242 24.1091V26.6411H199.15V25.1171H193.45V18.7571H194.602V24.1091H198.082V18.7571H199.234V24.1091H200.242ZM201.735 18.7571H202.887V23.3891L206.787 18.7571H207.831V25.1171H206.679V20.4851L202.791 25.1171H201.735V18.7571ZM215.167 18.7571V25.1171H214.135V23.1011H212.287H212.155L210.763 25.1171H209.527L211.075 22.9451C210.595 22.8011 210.227 22.5651 209.971 22.2371C209.715 21.9011 209.587 21.4851 209.587 20.9891C209.587 20.2611 209.835 19.7091 210.331 19.3331C210.827 18.9491 211.511 18.7571 212.383 18.7571H215.167ZM210.763 21.0251C210.763 21.4491 210.895 21.7651 211.159 21.9731C211.431 22.1731 211.835 22.2731 212.371 22.2731H214.135V19.7651H212.419C211.315 19.7651 210.763 20.1851 210.763 21.0251ZM220.187 25.1891C219.539 25.1891 218.959 25.0491 218.447 24.7691C217.943 24.4891 217.547 24.1051 217.259 23.6171C216.971 23.1211 216.827 22.5611 216.827 21.9371C216.827 21.3131 216.971 20.7571 217.259 20.2691C217.547 19.7731 217.943 19.3891 218.447 19.1171C218.959 18.8371 219.539 18.6971 220.187 18.6971C220.763 18.6971 221.275 18.8131 221.723 19.0451C222.179 19.2771 222.531 19.6131 222.779 20.0531L221.903 20.6171C221.703 20.3131 221.455 20.0851 221.159 19.9331C220.863 19.7811 220.535 19.7051 220.175 19.7051C219.759 19.7051 219.383 19.7971 219.047 19.9811C218.719 20.1651 218.459 20.4291 218.267 20.7731C218.083 21.1091 217.991 21.4971 217.991 21.9371C217.991 22.3851 218.083 22.7811 218.267 23.1251C218.459 23.4611 218.719 23.7211 219.047 23.9051C219.383 24.0891 219.759 24.1811 220.175 24.1811C220.535 24.1811 220.863 24.1051 221.159 23.9531C221.455 23.8011 221.703 23.5731 221.903 23.2691L222.779 23.8211C222.531 24.2611 222.179 24.6011 221.723 24.8411C221.275 25.0731 220.763 25.1891 220.187 25.1891ZM227.139 20.9171C227.939 20.9251 228.551 21.1091 228.975 21.4691C229.399 21.8291 229.611 22.3371 229.611 22.9931C229.611 23.6811 229.379 24.2131 228.915 24.5891C228.459 24.9571 227.803 25.1371 226.947 25.1291L224.271 25.1171V18.7571H225.423V20.9051L227.139 20.9171ZM230.559 18.7571H231.711V25.1171H230.559V18.7571ZM226.863 24.2531C227.383 24.2611 227.775 24.1571 228.039 23.9411C228.311 23.7251 228.447 23.4051 228.447 22.9811C228.447 22.5651 228.315 22.2611 228.051 22.0691C227.787 21.8771 227.391 21.7771 226.863 21.7691L225.423 21.7451V24.2411L226.863 24.2531Z" fill="#303B9B"/>
</svg>
